<?xml version="1.0" encoding="utf-8"?>
<!-- Generator: Adobe Illustrator 27.5.0, SVG Export Plug-In . SVG Version: 6.00 Build 0)  -->
<svg version="1.1" xmlns="http://www.w3.org/2000/svg" xmlns:xlink="http://www.w3.org/1999/xlink" x="0px" y="0px"
	 viewBox="0 0 3710 3710" style="enable-background:new 0 0 3710 3710;" xml:space="preserve">
<g id="Background">
	<g>
		<g>
			<rect style="fill:#FFFFFF;" width="3710" height="3710"/>
		</g>
	</g>
</g>
<g id="Illustration">
	<g>
		<path style="fill:#F4F7FA;" d="M1899.744,380.826C1154.061,358.182,508.143,914.601,410.555,1644.693
			c-106.697,798.256,480.552,1516.495,1203.137,1631.531c898.775,143.087,1770.535-684.685,1692.26-1582.693
			C3246.98,1016.96,2657.745,403.844,1899.744,380.826z"/>
		<g>
			<g>
				<path style="fill:#97A6B7;" d="M2287.01,3045.468c-40.446-13.416-70.675-47.742-79.2-89.932l-58.867-291.354l-503.57,17.882
					l-61.975,303.525c-8.68,42.509,26.065,85.155,66.081,100.811l210.683,82.433c39.186,15.332,81.307,21.438,123.172,17.857
					l445.248-38.09c13.016-1.114,23.456-11.345,24.971-24.471c1.515-13.126,10.634-27.865-1.777-31.981L2287.01,3045.468z"/>
				<linearGradient id="SVGID_1_" gradientUnits="userSpaceOnUse" x1="1972.0115" y1="3591.6819" x2="2034.8026" y2="2984.6968">
					<stop  offset="0" style="stop-color:#444B8C"/>
					<stop  offset="0.9964" style="stop-color:#26264F"/>
				</linearGradient>
				<path style="fill:url(#SVGID_1_);" d="M2291.994,3027.748c-40.405-13.247-70.605-47.142-79.12-88.801l-58.808-287.691
					l-491.295,17.676l-61.913,299.709c-8.671,41.974,14.271,84.065,54.246,99.525l210.471,81.396
					c39.146,15.139,81.225,21.169,123.048,17.633l444.8-37.611c13.002-1.1,23.433-11.203,24.946-24.164
					c1.513-12.961-6.309-25.195-18.709-29.26L2291.994,3027.748z"/>
			</g>
			<g>
				<g>
					
						<linearGradient id="SVGID_00000172422516110765512110000014574317554743426182_" gradientUnits="userSpaceOnUse" x1="1536.2515" y1="1898.0807" x2="873.45" y2="1974.8257">
						<stop  offset="0" style="stop-color:#444B8C"/>
						<stop  offset="0.3946" style="stop-color:#383C74"/>
						<stop  offset="0.9964" style="stop-color:#26264F"/>
					</linearGradient>
					<path style="fill:url(#SVGID_00000172422516110765512110000014574317554743426182_);" d="M616.396,2857.831
						c-54.609,3.256-99.284-32.171-99.284-78.989V1091.434c0-46.817,44.675-82.971,99.284-80.605l2525.433,109.425
						c40.092,1.737,72.556,35.539,72.556,75.356v1435.129c0,39.818-32.464,74.148-72.556,76.539L616.396,2857.831z"/>
					
						<linearGradient id="SVGID_00000114785482250246783610000001482116708637719173_" gradientUnits="userSpaceOnUse" x1="2664.282" y1="680.9108" x2="885.1877" y2="3387.9224">
						<stop  offset="0" style="stop-color:#444B8C"/>
						<stop  offset="0.9964" style="stop-color:#26264F"/>
					</linearGradient>
					<path style="fill:url(#SVGID_00000114785482250246783610000001482116708637719173_);" d="M639.093,2857.831
						c-54.609,3.256-99.284-32.171-99.284-78.989V1091.434c0-46.817,44.675-82.971,99.284-80.605l2525.433,109.425
						c40.093,1.737,72.556,35.539,72.556,75.356v1435.129c0,39.818-32.464,74.148-72.556,76.539L639.093,2857.831z"/>
					<path style="opacity:0.3;fill:#D8DEE8;" d="M3164.526,1154.028L639.094,1050.136c-29.194-1.201-52.93,18.089-52.93,43.089
						v1312.359v370.713c0,25,23.736,43.903,52.93,42.227l2525.433-145.021c21.489-1.234,38.866-19.55,38.866-40.914v-328.065
						V1194.309C3203.392,1172.946,3186.015,1154.912,3164.526,1154.028z"/>
					
						<linearGradient id="SVGID_00000018942102567384631460000014522703286725336767_" gradientUnits="userSpaceOnUse" x1="2436.5771" y1="1026.3379" x2="357.4825" y2="4075.217">
						<stop  offset="0" style="stop-color:#FFC444"/>
						<stop  offset="0.9964" style="stop-color:#F36F56"/>
					</linearGradient>
					<path style="fill:url(#SVGID_00000018942102567384631460000014522703286725336767_);" d="M639.093,2675.173
						c-11.366,0.562-20.622-6.894-20.622-16.617V1094.472c0-9.723,9.257-17.269,20.622-16.819l2525.433,100.019
						c8.382,0.332,15.195,7.386,15.195,15.723v1341.063c0,8.337-6.813,15.458-15.195,15.873L639.093,2675.173z"/>
				</g>
				<path style="opacity:0.6;fill:#FFFFFF;" d="M2900.881,2602.831c-212.463-131.425-64.064-505.101-302.667-692.852
					c-240.555-189.287-579.046,42.872-747.55-153.157c-125.467-145.961,21.342-322.202-98.458-459.47
					c-187.872-215.266-668.809,80.797-889.767-131.277c-31.372-30.111-63.03-75.791-81.047-149.081l-142.298-6.166
					c-54.609-2.366-99.284,33.788-99.284,80.605v1687.409c0,46.818,44.675,82.244,99.284,78.989l2525.433-150.554
					c40.092-2.39,72.556-36.721,72.556-76.539v-25.515C3069.393,2662.125,2966.88,2643.656,2900.881,2602.831z"/>
			</g>
			<g>
				<polygon style="fill:#F4F7FA;" points="779.309,2547.606 1387.164,2522.244 1387.164,2203.566 779.309,2218.306 				"/>
				<g>
					<g style="opacity:0.7;">
						<polygon style="fill:#F4F7FA;" points="2407.699,1998.876 2500.048,1997.602 2500.048,1322.412 2407.699,1320.045 						"/>
						<polygon style="fill:#F4F7FA;" points="2241.042,2001.175 2335.183,1999.876 2335.183,1659.031 2241.042,1658.474 						"/>
						<polygon style="fill:#F4F7FA;" points="2071.125,2003.52 2167.109,2002.196 2167.109,1248.662 2071.125,1245.843 						"/>
						<polygon style="fill:#F4F7FA;" points="1897.852,2005.91 1995.736,2004.56 1995.735,1356.504 1897.852,1354.256 						"/>
						<polygon style="fill:#F4F7FA;" points="1721.126,2008.349 1820.966,2006.971 1820.966,1831.48 1721.126,1831.873 						"/>
						<polygon style="fill:#F4F7FA;" points="1540.839,2010.836 1642.694,2009.431 1642.694,1592.82 1540.839,1591.866 						"/>
						<polygon style="fill:#F4F7FA;" points="1356.883,2013.374 1460.815,2011.94 1460.815,1405.43 1356.883,1403.393 						"/>
						<polygon style="fill:#F4F7FA;" points="1169.149,2015.965 1275.222,2014.501 1275.222,1567.673 1169.149,1566.554 						"/>
						<polygon style="fill:#F4F7FA;" points="977.513,2018.609 1085.794,2017.115 1085.794,1316.863 977.513,1314.267 						"/>
						<polygon style="fill:#F4F7FA;" points="781.855,2021.308 892.414,2019.783 892.414,1233.318 781.855,1230.202 						"/>
					</g>
				</g>
				<polygon style="fill:#F4F7FA;" points="2584.856,2472.27 3039.124,2453.315 3039.124,2407.343 2584.856,2425.038 				"/>
				<polygon style="fill:#F4F7FA;" points="2584.856,1862.564 3039.124,1859.865 3039.124,1813.893 2584.856,1815.332 				"/>
				<polygon style="fill:#F4F7FA;" points="2584.856,1781.71 3039.124,1781.167 3039.124,1735.195 2584.856,1734.478 				"/>
				<polygon style="fill:#F4F7FA;" points="2584.856,2406.979 2658.887,2404.174 2658.887,2331.733 2584.856,2334.222 				"/>
				<g>
					<path style="fill:#F4F7FA;" d="M946.25,2347.013c38.614,1.456,44.349-20.901,82.367-23.067
						c64.481-3.671,80.273,59.084,142.406,58.126c50.72-0.783,63.481-43.152,113.693-38.457
						c37.325,3.49,44.672,28.339,81.062,31.906c7.265,0.711,14.414,0.434,21.386-0.585v147.308l-607.855,25.363v-260.633
						c32.582,2.347,56.368,9.719,73.402,17.187C893.69,2322.123,907.29,2345.545,946.25,2347.013z"/>
				</g>
				<polygon style="fill:#F4F7FA;" points="2584.856,1670.41 3039.124,1672.834 3039.124,1274.274 2584.856,1260.932 				"/>
				<polygon style="fill:#F4F7FA;" points="781.855,2182.153 2500.048,2143.779 2500.048,2071.749 781.855,2102.896 				"/>
				<polygon style="fill:#F4F7FA;" points="1460.815,2519.17 2500.048,2475.808 2500.048,2171.641 1460.815,2196.542 				"/>
			</g>
		</g>
		<g>
			
				<linearGradient id="SVGID_00000103243257592151324490000007363079908657779605_" gradientUnits="userSpaceOnUse" x1="2669.6716" y1="13.5613" x2="570.4711" y2="4211.9536">
				<stop  offset="0.0036" style="stop-color:#E38DDD"/>
				<stop  offset="1" style="stop-color:#9571F6"/>
			</linearGradient>
			<path style="fill:url(#SVGID_00000103243257592151324490000007363079908657779605_);" d="M2923.559,505.803L986.59,442.152
				c-64.953-2.134-117.829,49.104-117.829,114.453v1887.863c0,65.349,52.876,116.067,117.829,113.293l1936.97-82.71
				c56.025-2.392,101.266-53.237,101.266-113.574V618.382C3024.826,558.044,2979.584,507.644,2923.559,505.803z"/>
			<path style="opacity:0.74;fill:#FFFFFF;" d="M986.59,2520.138c-44.181,1.827-80.099-32.7-80.099-77.123V557.686
				c0-44.423,35.918-79.303,80.098-77.911l1936.97,61.048c38.163,1.203,69.018,35.512,69.018,76.635v1745.258
				c0,41.123-30.855,75.735-69.018,77.313L986.59,2520.138z"/>
			
				<linearGradient id="SVGID_00000157999676907387948980000003723262434313382567_" gradientUnits="userSpaceOnUse" x1="1761.7623" y1="-117.5544" x2="2126.5059" y2="1341.424">
				<stop  offset="0.0036" style="stop-color:#E38DDD"/>
				<stop  offset="1" style="stop-color:#9571F6"/>
			</linearGradient>
			<path style="fill:url(#SVGID_00000157999676907387948980000003723262434313382567_);" d="M2923.559,505.803L986.59,442.152
				c-64.952-2.134-117.83,49.104-117.83,114.453v84.88l2156.067,55.268v-78.371C3024.827,558.044,2979.586,507.644,2923.559,505.803
				z"/>
			<path style="fill:#FFFFFF;" d="M1078.262,551.23c0,21.228-17.091,37.964-38.203,37.38c-21.144-0.585-38.308-18.317-38.308-39.603
				c0-21.287,17.164-38.02,38.308-37.377C1061.171,512.272,1078.262,530.002,1078.262,551.23z"/>
			<path style="fill:#FFFFFF;" d="M1211.616,555.105c0,21.127-16.928,37.785-37.839,37.206
				c-20.942-0.58-37.942-18.224-37.942-39.409s17-37.841,37.942-37.203C1194.688,516.336,1211.616,533.978,1211.616,555.105z"/>
			<path style="fill:#FFFFFF;" d="M1343.702,558.944c0,21.026-16.768,37.608-37.48,37.034
				c-20.743-0.574-37.581-18.132-37.581-39.216c0-21.084,16.838-37.663,37.581-37.031
				C1326.934,520.361,1343.702,537.917,1343.702,558.944z"/>
			<g>
				<polygon style="fill:#FFFFFF;" points="2029.2,877.698 1006.107,859.308 1006.107,919.463 2029.2,935.653 				"/>
				<polygon style="fill:#FFFFFF;" points="2798.387,891.523 2798.387,947.825 2906.628,949.538 2906.628,893.469 				"/>
			</g>
			<g>
				<polygon style="fill:#FFFFFF;" points="1222.401,1066.61 1006.107,1064.307 1006.107,1002.275 1222.401,1005.057 				"/>
				<polygon style="fill:#FFFFFF;" points="2377.91,1078.913 1360.486,1068.08 1360.486,1006.834 2377.91,1019.923 				"/>
				<polygon style="fill:#FFFFFF;" points="1571.357,1174.145 1360.486,1172.698 1360.486,1111.452 1571.357,1113.366 				"/>
				<polygon style="fill:#FFFFFF;" points="2698.59,1181.878 1706,1175.069 1706,1114.589 2698.59,1123.599 				"/>
				<polygon style="fill:#FFFFFF;" points="1571.357,1277.965 1360.486,1277.317 1360.486,1216.071 1571.357,1217.186 				"/>
				<polygon style="fill:#FFFFFF;" points="2698.59,1281.429 1706,1278.379 1706,1217.899 2698.59,1223.15 				"/>
				<polygon style="fill:#FFFFFF;" points="1222.401,1382.034 1006.107,1382.189 1006.107,1320.157 1222.401,1320.482 				"/>
				<polygon style="fill:#FFFFFF;" points="2377.91,1381.209 1360.486,1381.936 1360.486,1320.689 2377.91,1322.219 				"/>
				<polygon style="fill:#FFFFFF;" points="1571.357,1485.605 1360.486,1486.554 1360.486,1425.308 1571.357,1424.826 				"/>
				<polygon style="fill:#FFFFFF;" points="2698.59,1480.531 1706,1484.999 1706,1424.519 2698.59,1422.252 				"/>
				<polygon style="fill:#FFFFFF;" points="1571.357,1589.425 1360.486,1591.173 1360.486,1529.926 1571.357,1528.646 				"/>
				<polygon style="fill:#FFFFFF;" points="2698.59,1580.082 1706,1588.309 1706,1527.829 2698.59,1521.802 				"/>
				<polygon style="fill:#FFFFFF;" points="1571.357,1693.245 1360.486,1695.791 1360.486,1634.545 1571.357,1632.466 				"/>
				<polygon style="fill:#FFFFFF;" points="2698.59,1679.633 1706,1691.619 1706,1631.139 2698.59,1621.353 				"/>
				<polygon style="fill:#FFFFFF;" points="1914.846,1791.616 1709.246,1794.878 1709.246,1734.405 1914.846,1731.599 				"/>
				<polygon style="fill:#FFFFFF;" points="2852.62,1776.741 2046.144,1789.533 2046.144,1729.807 2852.62,1718.802 				"/>
				<polygon style="fill:#FFFFFF;" points="1222.401,1907.741 1006.107,1911.992 1006.107,1849.96 1222.401,1846.189 				"/>
				<polygon style="fill:#FFFFFF;" points="2377.91,1885.036 1360.486,1905.028 1360.486,1843.782 2377.91,1826.046 				"/>
				<polygon style="fill:#FFFFFF;" points="1571.357,2004.704 1360.486,2009.647 1360.486,1948.4 1571.357,1943.926 				"/>
				<polygon style="fill:#FFFFFF;" points="2698.59,1978.286 1706,2001.549 1706,1941.069 2698.59,1920.006 				"/>
				<polygon style="fill:#FFFFFF;" points="1571.357,2108.525 1360.486,2114.265 1360.486,2053.019 1571.357,2047.746 				"/>
				<polygon style="fill:#FFFFFF;" points="2698.59,2077.837 1706,2104.859 1706,2044.379 2698.59,2019.557 				"/>
				<polygon style="fill:#FFFFFF;" points="1222.401,2223.166 1006.107,2229.874 1006.107,2167.842 1222.401,2161.614 				"/>
				<polygon style="fill:#FFFFFF;" points="2377.91,2187.332 1360.486,2218.884 1360.486,2157.638 2377.91,2128.342 				"/>
				<polygon style="fill:#FFFFFF;" points="1571.357,2316.164 1360.486,2323.502 1360.486,2262.256 1571.357,2255.386 				"/>
				<polygon style="fill:#FFFFFF;" points="2698.59,2276.938 1706,2311.479 1706,2250.999 2698.59,2218.659 				"/>
			</g>
			<g style="opacity:0.5;">
				<path style="fill:#FFFFFF;" d="M2170.646,1231.553c-226.235-329.196-617.821-224.457-865.539-588.182
					c-44.675-65.596-74.989-132.342-95.78-193.9l-222.736-7.319c-64.953-2.134-117.83,49.104-117.83,114.454v1887.862
					c0,65.349,52.876,116.067,117.829,113.293l1866.03-79.681c-42.748-61.652-415.069-290.012-511.249-640.63
					C2253.413,1516.806,2307.141,1430.166,2170.646,1231.553z"/>
			</g>
		</g>
		<g>
			<path style="fill:#26264F;" d="M1983.062,1499.903c-3.137,0.857-5.79,2.954-7.348,5.808c-1.558,2.854-1.888,6.22-0.914,9.322
				l68.256,217.284c1.952,6.214,8.515,9.726,14.768,7.902l158.521-46.235c6.314-1.842,9.959-8.434,8.161-14.76l-61.457-216.235
				c-1.794-6.312-8.337-10.002-14.667-8.272L1983.062,1499.903z"/>
			
				<linearGradient id="SVGID_00000040550694153414095610000011612378163570641792_" gradientUnits="userSpaceOnUse" x1="1944.2587" y1="1340.0569" x2="2290.2742" y2="1902.4883">
				<stop  offset="0" style="stop-color:#FF9085"/>
				<stop  offset="1" style="stop-color:#FB6FBB"/>
			</linearGradient>
			<path style="fill:url(#SVGID_00000040550694153414095610000011612378163570641792_);" d="M1995.675,1510.465
				c-2.797,0.765-5.163,2.635-6.553,5.18c-1.39,2.545-1.684,5.547-0.815,8.313l60.869,193.768c1.741,5.542,7.594,8.673,13.17,7.047
				l141.367-41.232c5.631-1.642,8.881-7.521,7.277-13.163l-54.806-192.834c-1.6-5.629-7.435-8.92-13.08-7.377L1995.675,1510.465z"/>
			<path style="opacity:0.75;fill:#F4F7FA;" d="M2016.818,1521.259c-2.154,0.589-3.978,2.024-5.056,3.979
				c-1.078,1.955-1.32,4.264-0.669,6.399l19.262,63.198c1.299,4.261,5.741,6.725,10.044,5.571l112.81-30.26
				c2.131-0.572,3.944-1.971,5.037-3.887c1.093-1.916,1.374-4.19,0.781-6.314l-17.903-64.144c-1.222-4.378-5.752-6.947-10.136-5.749
				L2016.818,1521.259z"/>
			<path style="opacity:0.75;fill:#F4F7FA;" d="M2045.474,1622.093c-2.222,0.607-4.104,2.089-5.217,4.106
				c-1.113,2.017-1.362,4.399-0.69,6.603l19.874,65.211c1.34,4.397,5.924,6.94,10.364,5.749l116.403-31.223
				c2.198-0.59,4.07-2.034,5.197-4.011c1.127-1.977,1.418-4.323,0.806-6.515l-18.472-66.188c-1.261-4.518-5.935-7.169-10.459-5.932
				L2045.474,1622.093z"/>
			
				<linearGradient id="SVGID_00000181051049162706108580000015819406492034960773_" gradientUnits="userSpaceOnUse" x1="2830.637" y1="2079.3286" x2="2948.1602" y2="1609.234">
				<stop  offset="0" style="stop-color:#AB316D"/>
				<stop  offset="1" style="stop-color:#792D3D"/>
			</linearGradient>
			<path style="fill:url(#SVGID_00000181051049162706108580000015819406492034960773_);" d="M2905.524,1611.387
				c8.919,3.371,144.938,57.464,172.896,199.429c2.259,11.469,24.111,133.439-58.605,219.605
				c-92.752,96.62-271.353,94.225-342.245,13.452c-16.532-18.837-25.254-39.713-30.139-57.255l18.679-49.626
				c22.791-27.515,53.824-34.034,70.397-38.119c40.858-10.069,71.705,8.129,95.104-11.573
				c12.948-10.901,15.519-26.591,17.817-40.606c7.826-47.737-19.118-77.121-21.078-106.559
				c-1.467-22.007-9.17-70.227,19.554-101.672C2866.093,1618.552,2891.287,1613.13,2905.524,1611.387z"/>
			
				<linearGradient id="SVGID_00000039838258515756900160000009800375216233084041_" gradientUnits="userSpaceOnUse" x1="2601.0002" y1="3358.4307" x2="2656.7493" y2="3408.0198" gradientTransform="matrix(0.9902 -0.14 0.14 0.9902 -102.8428 206.9384)">
				<stop  offset="0" style="stop-color:#444B8C"/>
				<stop  offset="0.9964" style="stop-color:#26264F"/>
			</linearGradient>
			<path style="fill:url(#SVGID_00000039838258515756900160000009800375216233084041_);" d="M2958.523,3193.54
				c1.588-8.739,29.811-16.65,43.786-4.944c6.939,5.811,11.718,17.594,7.703,22.916c-1.461,1.937,4.521,5.341-1.21,5.407
				C2989.79,3217.141,2956.946,3202.224,2958.523,3193.54z"/>
			
				<linearGradient id="SVGID_00000041990698286243664610000010548194350218162326_" gradientUnits="userSpaceOnUse" x1="1729.4364" y1="3408.0984" x2="1729.4364" y2="3310.9773" gradientTransform="matrix(0.9902 -0.14 0.14 0.9902 813.3583 77.4224)">
				<stop  offset="0" style="stop-color:#FFC444"/>
				<stop  offset="0.9964" style="stop-color:#F36F56"/>
			</linearGradient>
			<path style="fill:url(#SVGID_00000041990698286243664610000010548194350218162326_);" d="M2988.107,3196.721l29.027-4.104
				c-13.448-16.191-10.959-67.752-10.959-67.752l-30.869,6.891c0,0,3.517,14.153,9.501,35.029
				C2986.854,3173.931,2987.77,3185.115,2988.107,3196.721z"/>
			
				<linearGradient id="SVGID_00000093139161531381776140000016405104065729980590_" gradientUnits="userSpaceOnUse" x1="2606.6052" y1="3352.1311" x2="2662.354" y2="3401.72" gradientTransform="matrix(0.9902 -0.14 0.14 0.9902 -102.8428 206.9384)">
				<stop  offset="0" style="stop-color:#444B8C"/>
				<stop  offset="0.9964" style="stop-color:#26264F"/>
			</linearGradient>
			<path style="fill:url(#SVGID_00000093139161531381776140000016405104065729980590_);" d="M2985.532,3193.145
				c0,0,34.947-8.051,38.727-1.12c3.78,6.933,6.715,25.493-15.457,24.894C2986.63,3216.321,2983.563,3199.023,2985.532,3193.145z"/>
			
				<linearGradient id="SVGID_00000133499145242751656910000008759710169709742724_" gradientUnits="userSpaceOnUse" x1="2548.2551" y1="3199.1418" x2="2604.0071" y2="3248.7332">
				<stop  offset="0" style="stop-color:#444B8C"/>
				<stop  offset="0.9964" style="stop-color:#26264F"/>
			</linearGradient>
			<path style="fill:url(#SVGID_00000133499145242751656910000008759710169709742724_);" d="M2560.245,3226.312
				c2.794-8.431,31.848-12.314,44.047,1.233c6.057,6.726,9.14,19.061,4.42,23.768c-1.718,1.713,3.729,5.921-1.956,5.186
				C2587.899,3254.057,2557.467,3234.69,2560.245,3226.312z"/>
			
				<linearGradient id="SVGID_00000158723681920070477040000010223011304653074062_" gradientUnits="userSpaceOnUse" x1="1235.194" y1="308.0743" x2="1296.5166" y2="360.2815" gradientTransform="matrix(0.1359 0.9907 0.9907 -0.1359 1532.756 497.6357)">
				<stop  offset="0" style="stop-color:#FFC444"/>
				<stop  offset="0.9964" style="stop-color:#F36F56"/>
			</linearGradient>
			<path style="fill:url(#SVGID_00000158723681920070477040000010223011304653074062_);" d="M2057.774,1747.166l-26.531-12.707
				c-4.12-3.294-10.425-9.141-15.203-18.102c-7.865-14.751-7.74-30.718-7.638-30.734c0.062-0.009-1.209-21.474,7.899-25.108
				c1.193-0.476,2.571-0.628,4.159-0.371l9.437,24.851c0,0,1.511,10.812,18.56,22.033c16.902,14.721,23.709,28.177,23.709,28.177
				L2057.774,1747.166z"/>
			
				<linearGradient id="SVGID_00000036963201049019906320000015086499839068265102_" gradientUnits="userSpaceOnUse" x1="1676.6478" y1="3248.8323" x2="1676.6478" y2="3151.7065" gradientTransform="matrix(1 0 0 1 925.3102 0)">
				<stop  offset="0" style="stop-color:#FFC444"/>
				<stop  offset="0.9964" style="stop-color:#F36F56"/>
			</linearGradient>
			<path style="fill:url(#SVGID_00000036963201049019906320000015086499839068265102_);" d="M2589.092,3233.602h29.314
				c-11.048-17.915-1.366-68.619-1.366-68.619l-31.53,2.502c0,0,1.502,14.505,4.505,36.014
				C2591.042,3210.861,2590.383,3222.064,2589.092,3233.602z"/>
			
				<linearGradient id="SVGID_00000111160061109231604170000015544234179662868637_" gradientUnits="userSpaceOnUse" x1="7478.3643" y1="3293.3701" x2="7114.8242" y2="1825.58" gradientTransform="matrix(-1 0 0 1 10075.7471 0)">
				<stop  offset="0" style="stop-color:#444B8C"/>
				<stop  offset="0.9964" style="stop-color:#26264F"/>
			</linearGradient>
			<path style="fill:url(#SVGID_00000111160061109231604170000015544234179662868637_);" d="M2513.118,2125.021
				c-13.58,44.844-32.973,117.223-45.457,208.031c-35.608,259.017,40.075,267.279,25.941,554.303
				c-4.511,91.619,79.373,302.883,86.767,307.549c3.579,0.346,7.461,0.58,11.602,0.455c7.297-0.22,17.583-1.337,29.546-4.924
				c13.288-2.29,61.196-132.053,50.092-209.205c-7.86-54.605-5.581-113.208-1.025-230.415
				c0.737-18.991,49.328-369.484,49.328-369.484c14.78,129.734,31.777,239.965,46.514,325.429
				c47.345,274.581,201.284,440.777,209.314,443.443c1.586,0.636,16.031,5.885,27.841-1.9c5.256-3.464,7.044-7.935,7.044-7.935
				c4.118-3.224-1.213-274.138-48.167-478.025c-68.153-295.939-38.477-365.184-60.068-497.369
				C2883.706,2050.596,2513.118,2125.021,2513.118,2125.021z"/>
			
				<linearGradient id="SVGID_00000004546017622464178100000016863280419134259591_" gradientUnits="userSpaceOnUse" x1="2377.2314" y1="1630.6378" x2="3082.374" y2="2190.2747">
				<stop  offset="0" style="stop-color:#AB316D"/>
				<stop  offset="1" style="stop-color:#792D3D"/>
			</linearGradient>
			<path style="fill:url(#SVGID_00000004546017622464178100000016863280419134259591_);" d="M2788.398,1588.288
				c-45.248-1.33-132.885-16.106-190.168,35.438c-0.996,0.894-5.628,5.967-11.406,12.738c-5.365,6.285-23.764,28.289-40.446,58.035
				c-12.083,21.543-22.988,46.655-33.991,84.083c-19.405,66.005-24.973,122.209-26.835,146.698
				c-10.471,137.712-0.088,201.248,9.334,244.453c40.909,21.013,146.327,58.615,271.933,39.932
				c57.361-8.533,103.267-27.62,135.57-44.659c-32.592-98.682-7.022-151.488,5.041-200.159
				c17.203-69.402,17.479-64.155,31.642-119.286c23.37-90.968,27.203-183.919,11.147-202.94
				C2906.922,1591.335,2828.911,1589.481,2788.398,1588.288z"/>
			
				<linearGradient id="SVGID_00000080170063451833791040000006128788176738751401_" gradientUnits="userSpaceOnUse" x1="2565.1641" y1="1779.7904" x2="3042.7708" y2="2158.8433">
				<stop  offset="0" style="stop-color:#AB316D"/>
				<stop  offset="1" style="stop-color:#792D3D"/>
			</linearGradient>
			<path style="opacity:0.3;fill:url(#SVGID_00000080170063451833791040000006128788176738751401_);" d="M2950.218,1642.622
				c-24.307-28.793-59.556-42.004-92.969-48.266c15.663,69.912-19.919,155.532-68.205,200.979
				c-45.052,42.402-86.497,14.244-116.358,49.595c-24.662,29.196-25.466,76.645-13.022,109.189
				c16.829,44.014,53.121,48.292,51.234,73.133c-2.501,32.93-68.708,57.442-117.405,62.025
				c-50.86,4.787-91.416-11.336-111.522-21.044c2.036,46.588,7.627,77.249,12.916,101.501
				c40.909,21.013,146.327,58.616,271.933,39.933c57.361-8.533,103.267-27.62,135.57-44.659
				c-32.592-98.682-7.022-151.489,5.041-200.159c17.203-69.403,17.479-64.156,31.642-119.286
				C2962.441,1754.594,2966.275,1661.642,2950.218,1642.622z"/>
			
				<linearGradient id="SVGID_00000137853333878263116810000009157105337736168364_" gradientUnits="userSpaceOnUse" x1="2553.8599" y1="3192.8411" x2="2609.6116" y2="3242.4324">
				<stop  offset="0" style="stop-color:#444B8C"/>
				<stop  offset="0.9964" style="stop-color:#26264F"/>
			</linearGradient>
			<path style="fill:url(#SVGID_00000137853333878263116810000009157105337736168364_);" d="M2587.042,3229.7
				c0,0,35.73-3.08,38.502,4.313c2.772,7.392,3.08,26.181-18.789,22.485C2584.886,3252.801,2584.27,3235.246,2587.042,3229.7z"/>
			
				<linearGradient id="SVGID_00000123405021810303843930000017622177449410816910_" gradientUnits="userSpaceOnUse" x1="2296.6606" y1="1732.1577" x2="3001.804" y2="2291.7952">
				<stop  offset="0" style="stop-color:#AB316D"/>
				<stop  offset="1" style="stop-color:#792D3D"/>
			</linearGradient>
			<path style="fill:url(#SVGID_00000123405021810303843930000017622177449410816910_);" d="M2668.667,1604.794
				c-49.491-32.2-178.9,68.688-218.078,96.514c-151.918,107.889-133.708,175.19-202.702,141.594
				c-46.654-22.715-52.986-91.193-132.718-116.949c-14.096-4.553-26.222-6.394-34.028-7.238
				c-0.107,0.058-26.327,14.005-26.442,14.04c-9.313,3.016-18.626,6.028-26.441,14.043c-7.67,15.919-14.699,35.31-18.231,57.918
				c0.754,8.031,2.332,21.344,5.947,37.421c2.994,13.306,38.02,158.919,159.774,203.762c22.367,8.238,40.95,10.606,50.329,11.741
				c40.008,4.851,76.272-1.079,138.266-22.442c105.011-36.183,185.182-70.125,256.067-153.088c3.376-3.952,6.106-7.83,8.83-12.007
				C2681.957,1789.266,2716.445,1635.873,2668.667,1604.794z"/>
			<g>
				
					<linearGradient id="SVGID_00000073705256851151603690000018076317790298980774_" gradientUnits="userSpaceOnUse" x1="2603.0876" y1="1430.2499" x2="2905.0073" y2="1810.1033">
					<stop  offset="0" style="stop-color:#FFC444"/>
					<stop  offset="0.9964" style="stop-color:#F36F56"/>
				</linearGradient>
				<path style="fill:url(#SVGID_00000073705256851151603690000018076317790298980774_);" d="M2661.056,1536.411
					c-14.015-23.697-7.771-50.766-6.363-56.616c5.894-24.49,8.087-28.205,12.632-33.387l6.427-6.796c0,0,0.399-0.298,0.823-0.589
					c4.469-3.074,21.158-8.07,24.76-8.25c11.509-0.578,34.928,40.691,48.339,104.288c1.089,2.27,2.168,4.565,3.236,6.883
					c6.651,14.428,12.358,28.618,17.256,42.452c77.775,6.576,88.569,15.701,88.915,20.971c0.729,11.093-43.585,23.911-76.912,28.791
					c-72.682,10.641-147.395-8.527-147.054-22.08c0.148-5.901,14.595-13.59,76.21-21.659c-1.441-10.196-2.882-20.392-4.323-30.588
					C2699.996,1558.719,2671.379,1553.869,2661.056,1536.411z"/>
				<path style="fill:#26264F;" d="M2646.436,1427.813c5.244,19.413,19.931,37.723,25.484,39.814
					c0.717,0.271,4.821,2.045,9.087,5.811c0.581,0.512,1.141,1.144,1.719,2.001c7.52,11.109-8.107,30.708-2.888,35.189
					c3.786,3.25,15.601-5.595,18.089-2.581c2.344,2.837-6.867,12.461-4.152,15.883c2.05,2.583,8.104-1.893,13.565,1.445
					c2.722,1.663,2.568,3.597,6.64,9.812c2.303,3.516,5.209,7.259,7.217,9.237c9.756,9.618,29.885,8.715,32.328,3.175
					c0.679-1.544-0.48-2.38-0.578-6.927c0,0-0.09-4.214,1.444-9.524c2.191-7.585,10.441-14.792,18.184-24.246
					c14.339-17.509,16.258-29.687,16.724-33.753c0.165-1.448,0.222-2.522,0.263-3.297c0.797-15.551-4.791-36.592-14.677-47.812
					c-16.564-18.796-38.152-2.022-63.79-18.184c-29.582-18.648-24.924-56.158-38.389-56.574
					C2657.859,1346.821,2636.74,1391.918,2646.436,1427.813z"/>
				
					<linearGradient id="SVGID_00000180359888905856158950000016918147519052050594_" gradientUnits="userSpaceOnUse" x1="2615.8188" y1="1420.1274" x2="2917.7454" y2="1799.9896">
					<stop  offset="0" style="stop-color:#FFC444"/>
					<stop  offset="0.9964" style="stop-color:#F36F56"/>
				</linearGradient>
				<path style="fill:url(#SVGID_00000180359888905856158950000016918147519052050594_);" d="M2685.604,1504.199
					c3.018-7.813,13.025-3.895,15.331,4.557c2.306,8.453-3.55,19.442-11.954,19.892
					C2680.577,1529.098,2681.544,1514.714,2685.604,1504.199z"/>
			</g>
			<path style="fill:#26264F;" d="M2685.691,1489.006l-7.217,17.316c0,0-7.216,20.783-16.74,12.991
				c-7.782-6.367-9.206-5.799-9.467-5.377c-0.05,0.081-0.042,0.18-0.059,0.18c-0.107,0-0.213-4.145-0.289-7.795
				c-1.815,5.007-4.042,12.935-4.041,22.804c0.001,9.586,0.002,19.85,7.504,27.709c0.435,0.454,8.609,8.77,19.627,8.371
				c0,0,4.333-0.157,20.782-7.792c0,0-22.512-8.659-23.668-11.834c-3.139-8.634,7.851-16.681,12.123-37.236
				C2685.896,1500.415,2685.937,1493.614,2685.691,1489.006z"/>
		</g>
		<g>
			<g>
				
					<linearGradient id="SVGID_00000026157374905493714080000014087391241239946896_" gradientUnits="userSpaceOnUse" x1="239.8519" y1="2702.5808" x2="-171.2965" y2="3191.4739" gradientTransform="matrix(-1 0 0 1 1362.8925 0)">
					<stop  offset="0.0036" style="stop-color:#E38DDD"/>
					<stop  offset="1" style="stop-color:#9571F6"/>
				</linearGradient>
				<path style="fill:url(#SVGID_00000026157374905493714080000014087391241239946896_);" d="M1154.637,3226.298
					c-24.775-122.432-14.106-220.821-2.853-280.233c13.652-72.079,41.406-218.608,157.889-300.284
					c9.179-6.436,100.304-69.11,141.232-37.982c21.107,16.053,25.926,54.823,16.698,85.423
					c-23.829,79.008-131.266,70.243-166.96,160.161c-11.886,29.945-14.09,66.483-5.8,69.929
					c10.206,4.241,39.314-40.438,42.088-44.696c25.951-39.832,26.193-62.384,45.98-68.5c12.15-3.757,28.163-0.231,35.327,9.364
					c16.313,21.851-15.909,71.637-24.919,85.557c-23.563,36.407-43.241,44.678-48.025,75.674
					c-2.06,13.346-1.693,33.075,6.223,36.151c10.706,4.16,31.142-23.725,44.251-41.613c35.246-48.093,39.003-76.052,56.527-78.057
					c16.347-1.869,34.77,19.982,39.501,33.296C1504.709,2966.827,1452.803,3044.176,1154.637,3226.298z"/>
				<path style="opacity:0.28;fill:#FFFFFF;" d="M1158.366,3205.296c-3.701-113.765,14.714-203.953,31.397-263.134
					c21.443-76.074,61.775-219.156,174.924-281.076c8.041-4.401,67.197-36.772,83.724-19.436
					c11.018,11.558,1.253,43.281-14.95,64.288c-27.651,35.848-59.501,21.626-104.656,56.813
					c-40.517,31.573-54.747,74.093-58.309,85.219c-13.212,41.279-6.348,76.667-4.485,89.705
					C1273.088,2987.201,1258.599,3068.325,1158.366,3205.296z"/>
				<path style="opacity:0.28;fill:#FFFFFF;" d="M1198.733,3176.889c63.448-56.826,78.113-103.384,79.239-136.052
					c0.877-25.452-6.009-55.661,13.456-83.725c12.451-17.952,21.838-15.059,43.358-34.386
					c44.953-40.374,50.536-94.795,59.803-92.696c5.158,1.169,7.833,19.022,4.486,35.882c-6.909,34.792-34.119,38.44-61.299,80.735
					c-18.568,28.893-25.015,56.983-28.407,71.764c-8.277,36.066-2.656,48.719-7.476,68.773
					C1295.648,3113.174,1273.04,3146.717,1198.733,3176.889z"/>
			</g>
			<g>
				
					<linearGradient id="SVGID_00000115477568157732324730000015270460430561777834_" gradientUnits="userSpaceOnUse" x1="382.3113" y1="3220.906" x2="349.748" y2="2924.8762" gradientTransform="matrix(-0.9986 0.0527 0.0527 0.9986 1370.7856 28.5205)">
					<stop  offset="0" style="stop-color:#AA80F9"/>
					<stop  offset="0.9964" style="stop-color:#6165D7"/>
				</linearGradient>
				<path style="fill:url(#SVGID_00000115477568157732324730000015270460430561777834_);" d="M1192.757,3246.077
					c109.988,6.303,142.682,12.895,194.513-4.768c48.703-16.597,98.662-49.279,94.274-64.282
					c-3.147-10.762-33.724-10.619-51.987-10.533c-49.01,0.229-89.426,15.24-117.784,29.75
					c24.458-16.598,48.917-33.197,73.376-49.795c17.078-6.111,45.977-19.077,71.576-46.473
					c16.027-17.152,52.855-63.605,39.013-85.926c-14.459-23.316-83.151-18.607-122.747,14.46
					c-18.999,15.866-19.024,28.011-44.49,55.711c-23.144,25.176-47.037,41.156-63.824,50.801
					c15.729-19.662,37.123-50.378,53.754-91.772c25.271-62.899,44.348-162.404,12.206-180.493
					c-21.321-11.998-63.595,12.725-84.739,42.027c-17.143,23.757-15.463,43.683-27.259,120.021
					c-5.129,33.188-10.158,59.913-13.424,76.494c-32.711-71.753-42.201-132.12-44.117-176.487
					c-2.462-57.01,6.972-101.68-14.833-113.563c-19.435-10.591-54.139,10.073-71.741,29.462
					c-71.243,78.477,22.755,262.653,32.691,281.659c-26.141-19.796-62.166-50.769-97.056-95.537
					c-37.311-47.873-53.067-83.509-72.035-80.318c-18.866,3.174-31.299,43.336-29.883,74.417
					c3.946,86.649,117.11,137.533,129.188,142.78c-9.52,1.533-25.659,3.144-44.687-0.489c-42.193-8.054-55.354-33.631-98.16-42.314
					c-16.372-3.321-49.847-6.761-53.972,3.376c-7.405,18.195,77.147,86.527,179.738,112.581
					C1057.951,3246.415,1048.96,3237.837,1192.757,3246.077z"/>
				<path style="opacity:0.28;fill:#FFFFFF;" d="M1265.351,3183.391c50.075-22.261,43.27-52.534,98.051-90.019
					c35.081-24.005,43.231-15.257,80.825-38.205c20.678-12.621,37.58-27.095,51.3-41.411c0.065,0.101,0.148,0.192,0.21,0.294
					c13.843,22.32-22.985,68.774-39.013,85.926c-25.6,27.396-54.498,40.362-71.576,46.473
					c-24.459,16.598-48.917,33.197-73.376,49.795c28.358-14.509,68.775-29.521,117.784-29.75
					c15.921-0.075,41.194-0.191,49.501,6.911c-14.717,9.125-27.959,13.517-38.734,15.716c-24.57,5.013-39.983-0.595-61.237,12.217
					c-17.051,10.279-15.629,19.01-30.642,24.575c-14.129,5.238-21.346-0.289-56.212-6.014c-33.914-5.569-51.151-8.177-64.854,0.432
					c-10.357,6.507-15.858,17.239-18.892,26.679c-3.514-0.214-7.108-0.431-10.797-0.647c2.727-10.839,7.738-23.263,17.272-34.359
					C1230.076,3194.412,1246.617,3191.719,1265.351,3183.391z"/>
				<path style="opacity:0.28;fill:#FFFFFF;" d="M1122.657,3221.869c-7.913-1.894-11.694,3.763-22.682,5.191
					c-20.42,2.652-28.073-14.197-52.077-22.202c-28.41-9.476-35.614,8.149-63.911-0.616c-22.4-6.94-19.513-18.488-48.778-35.352
					c-31.142-17.945-44.329-10.583-67.217-25.395c-7.356-4.761-15.75-11.845-23.742-22.867c10.063-5.455,36.392-2.547,50.332,0.28
					c42.807,8.683,55.967,34.26,98.16,42.314c19.028,3.633,35.167,2.022,44.687,0.489c-12.078-5.247-125.242-56.13-129.188-142.78
					c-1.312-28.831,9.294-65.455,25.894-73.143c-1.974,20.016-2.249,37.125-1.945,50.583c0.708,31.312,1.265,47.234,11.17,60.295
					c17.185,22.662,38.131,10.849,66.695,34.406c26.003,21.445,16.942,38.079,44.068,59.554
					c23.409,18.534,37.281,11.785,59.306,26.811c13.819,9.427,30.601,27.281,40.683,64.644c-4.591-0.208-8.987-0.398-13.169-0.566
					C1136.962,3232.918,1131.187,3223.91,1122.657,3221.869z"/>
				<path style="opacity:0.28;fill:#FFFFFF;" d="M1147.362,3103.785c-13.704-37.327-37.496-33.49-47.422-66.365
					c-9.868-32.679,11.72-42.837,6.217-90.158c-4.122-35.452-17.509-40.672-18.399-64.904c-0.657-17.864,5.641-42.202,34.759-72.371
					c8.83-2.321,17.166-2.327,23.749,1.26c21.805,11.882,12.371,56.552,14.833,113.563c1.916,44.367,11.406,104.734,44.117,176.487
					c3.266-16.581,8.295-43.306,13.424-76.494c11.796-76.338,10.115-96.264,27.259-120.021
					c21.144-29.302,63.418-54.025,84.739-42.027c1.219,0.686,2.354,1.502,3.428,2.415c-10.635,7.25-20.444,16.16-28.693,27.153
					c-28.119,37.471-12.122,64.316-37.614,138.228c-24.517,71.085-49.391,75.476-69.124,136.899
					c-6.302,19.616-12.24,45.583-13.465,78.2c-7.203-0.398-13.99-0.751-20.413-1.067c-7.384-24.194-10.866-45.844-12.351-64.211
					C1149.134,3139.934,1156.619,3128.999,1147.362,3103.785z"/>
			</g>
		</g>
	</g>
</g>
</svg>
