<?xml version="1.0" encoding="UTF-8" standalone="no"?>
<!-- Generator: Adobe Illustrator 27.5.0, SVG Export Plug-In . SVG Version: 6.00 Build 0)  -->

<svg
   version="1.1"
   x="0px"
   y="0px"
   viewBox="0 0 750 500"
   style="enable-background:new 0 0 750 500;"
   xml:space="preserve"
   id="svg440"
   sodipodi:docname="cover by storyset.svg"
   inkscape:version="1.1 (c68e22c387, 2021-05-23)"
   xmlns:inkscape="http://www.inkscape.org/namespaces/inkscape"
   xmlns:sodipodi="http://sodipodi.sourceforge.net/DTD/sodipodi-0.dtd"
   xmlns="http://www.w3.org/2000/svg"
   xmlns:svg="http://www.w3.org/2000/svg"><defs
   id="defs444">
	

		
		
			
		
		
		
		
		
		
		
		
		
			
		
		
		
		
		
		
		
		
		
		
		
		
		
		
		
		
		
		
		
		
			
	
	
	
	
	
	
	
	
	
	
	
	
	
	

	

		
		
	
	
	
	

		
		
		
		
		
		
	
			
			
		</defs><sodipodi:namedview
   id="namedview442"
   pagecolor="#ffffff"
   bordercolor="#666666"
   borderopacity="1.0"
   inkscape:pageshadow="2"
   inkscape:pageopacity="0.0"
   inkscape:pagecheckerboard="0"
   showgrid="false"
   inkscape:zoom="1.4933333"
   inkscape:cx="374.66518"
   inkscape:cy="250.11161"
   inkscape:window-width="1920"
   inkscape:window-height="1009"
   inkscape:window-x="-8"
   inkscape:window-y="-8"
   inkscape:window-maximized="1"
   inkscape:current-layer="svg440" />







<path
   style="fill:#e3d992;fill-opacity:1"
   d="m 49.44201,270.9 c 2.821,-32.637 12.574,-64.707 26.595,-94.417 41.87,-88.724 127.93,-166.225 231.104,-162.319 66.158,2.505 131.783,11.069 197.584,17.857 56.168,5.794 112.046,11.101 156.278,50.108 19.144,16.882 34.57,38.072 44.051,61.813 26.36,66.006 6.661,143.928 -35.934,200.825 -42.595,56.897 -105.001,95.725 -169.163,126.299 -26.163,12.467 -55.519,24.02 -83.437,16.243 -17.193,-4.789 -31.595,-16.407 -47.912,-23.64 -54.898,-24.334 -118.558,4.294 -178.29,-1.875 -35.483,-3.664 -69.492,-20.23 -94.251,-45.91 -29.573,-30.673 -45.251,-73.246 -47.236,-115.806 -0.453,-9.745 -0.227,-19.486 0.611,-29.178 z"
   id="path2" /><path
   style="opacity:0.7;fill:#ffffff;stroke-width:0.999996"
   d="m 49.44201,268.62544 c 2.821,-30.56784 12.574,-60.60465 26.595,-88.43107 41.87,-83.099003 127.93,-155.686531 231.104,-152.028167 66.158,2.346187 131.783,10.367239 197.584,16.724888 56.168,5.426667 112.046,10.39721 156.278,46.931212 19.144,15.811697 34.57,35.658287 44.051,57.894127 26.36,61.8213 6.661,134.80314 -35.934,188.09293 -42.595,53.28981 -105.001,89.65616 -169.163,118.29179 -26.163,11.67662 -55.519,22.49716 -83.437,15.21322 -17.193,-4.48538 -31.595,-15.36681 -47.912,-22.14125 -54.898,-22.79125 -118.558,4.02176 -178.29,-1.75613 -35.483,-3.43171 -69.492,-18.94745 -94.251,-42.99936 -29.573,-28.72837 -45.251,-68.60229 -47.236,-108.46404 -0.453,-9.12718 -0.227,-18.25061 0.611,-27.32815 z"
   id="path4" /><g
   id="Table"
   transform="matrix(-1,0,0,1,755.88101,0)">
	<g
   id="g70">
		
			<line
   style="fill:none;stroke:#263238;stroke-linecap:round;stroke-linejoin:round;stroke-miterlimit:10"
   x1="724.00897"
   y1="360.37201"
   x2="735.04901"
   y2="362.254"
   id="line64" />
		<polyline
   style="fill:none;stroke:#263238;stroke-linecap:round;stroke-linejoin:round;stroke-miterlimit:10"
   points="    167.615,375.482 504.759,322.988 716.971,359.172   "
   id="polyline66" />
		
			<line
   style="fill:none;stroke:#263238;stroke-linecap:round;stroke-linejoin:round;stroke-miterlimit:10"
   x1="20.832001"
   y1="398.33701"
   x2="152.963"
   y2="377.76401"
   id="line68" />
	</g>
</g><polygon
   style="fill:#dbdbdb;stroke:#263238;stroke-linecap:round;stroke-linejoin:round;stroke-miterlimit:10"
   points="387.807,105.154 388.212,359.586 593.699,392.35 683.498,373.743 683.903,91.806 591.709,80.608 "
   id="polygon73"
   transform="matrix(-1,0,0,1,755.88101,0)" /><line
   style="fill:none;stroke:#263238;stroke-linecap:round;stroke-linejoin:round;stroke-miterlimit:10"
   x1="81.651031"
   y1="365.87299"
   x2="146.98703"
   y2="356.00201"
   id="line75" /><polygon
   style="fill:#263238;stroke:#263238;stroke-linecap:round;stroke-linejoin:round;stroke-miterlimit:10"
   points="447.819,272.175 575.112,286.035 575.112,160.157 572.283,157.611 447.819,161.005 "
   id="polygon85"
   transform="matrix(-1,0,0,1,755.88101,0)" /><g
   id="g113"
   transform="matrix(-1,0,0,1,755.88101,0)">
			<path
   style="fill:#ffffff;stroke:#263238;stroke-linecap:round;stroke-linejoin:round;stroke-miterlimit:10"
   d="m 528.435,201.313 c -0.531,0 -1.07,-0.12 -1.578,-0.374 -4.818,-2.409 -11.971,-9.767 -17.009,-17.496 -4.84,-7.427 -9.848,-18.301 -6.215,-27.928 1.766,-4.68 8.863,-12.594 49.926,-27.222 21.995,-7.835 43.578,-13.91 43.793,-13.97 1.882,-0.525 3.829,0.568 4.357,2.448 0.527,1.879 -0.569,3.83 -2.448,4.357 -34.876,9.785 -85.551,27.697 -89.017,36.882 -2.724,7.218 2.292,16.615 5.524,21.575 5.217,8.005 11.586,13.703 14.249,15.034 1.745,0.872 2.453,2.995 1.58,4.741 -0.618,1.238 -1.866,1.953 -3.162,1.953 z"
   id="path111" />
		</g><g
   id="g117"
   transform="matrix(-1,0,0,1,755.88101,0)">
			<path
   style="fill:#ffffff;stroke:#263238;stroke-linecap:round;stroke-linejoin:round;stroke-miterlimit:10"
   d="m 525.889,222.246 c -0.68,0 -1.367,-0.196 -1.973,-0.606 -10.043,-6.779 -13.794,-20.951 -11.148,-42.121 1.217,-9.733 5.782,-18.528 13.957,-26.89 10.98,-11.23 28.82,-21.794 53.025,-31.399 53.98,-21.421 79.332,-14.276 80.388,-13.962 1.869,0.559 2.932,2.528 2.373,4.397 -0.557,1.865 -2.507,2.93 -4.38,2.379 -0.342,-0.096 -24.573,-6.564 -75.775,13.755 -39.649,15.734 -60.118,32.938 -62.575,52.597 -2.29,18.313 0.432,30.219 8.088,35.387 1.618,1.092 2.044,3.288 0.952,4.905 -0.683,1.012 -1.797,1.558 -2.932,1.558 z"
   id="path115" />
		</g><polygon
   style="fill:#ffffff;stroke:#263238;stroke-linecap:round;stroke-linejoin:round;stroke-miterlimit:10"
   points="542.606,168.237 524.977,168.237 521.911,177.435 521.911,252.167 521.911,258.299 544.139,258.299 547.205,254.466 556.786,254.466 556.786,174.369 547.205,172.453 "
   id="polygon119"
   transform="matrix(-1,0,0,1,755.88101,0)" /><rect
   x="-233.97"
   y="177.435"
   style="fill:#8e8b5b;stroke:#ffffff;stroke-linecap:round;stroke-linejoin:round;stroke-miterlimit:10;fill-opacity:1"
   width="15.713"
   height="74.732002"
   id="rect121"
   transform="scale(-1,1)" /><g
   id="g137"
   transform="matrix(-1,0,0,1,755.88101,0)">
			<polygon
   style="fill:#ffffff;stroke:#263238;stroke-linecap:round;stroke-linejoin:round;stroke-miterlimit:10"
   points="582.463,251.017 583.996,214.609 547.588,211.926 547.588,246.035 "
   id="polygon123" />
			
				<line
   style="fill:none;stroke:#263238;stroke-linecap:round;stroke-linejoin:round;stroke-miterlimit:10"
   x1="548"
   y1="216.08099"
   x2="583.56299"
   y2="219.10699"
   id="line125" />
			
				<line
   style="fill:none;stroke:#263238;stroke-linecap:round;stroke-linejoin:round;stroke-miterlimit:10"
   x1="547.62201"
   y1="221.94501"
   x2="583.37402"
   y2="225.91701"
   id="line127" />
			
				<line
   style="fill:none;stroke:#263238;stroke-linecap:round;stroke-linejoin:round;stroke-miterlimit:10"
   x1="547.81097"
   y1="227.62"
   x2="582.99597"
   y2="231.78101"
   id="line129" />
			
				<line
   style="fill:none;stroke:#263238;stroke-linecap:round;stroke-linejoin:round;stroke-miterlimit:10"
   x1="547.62201"
   y1="233.295"
   x2="582.99597"
   y2="237.83501"
   id="line131" />
			
				<line
   style="fill:none;stroke:#263238;stroke-linecap:round;stroke-linejoin:round;stroke-miterlimit:10"
   x1="547.24402"
   y1="238.213"
   x2="582.42798"
   y2="243.131"
   id="line133" />
			
				<line
   style="fill:none;stroke:#263238;stroke-linecap:round;stroke-linejoin:round;stroke-miterlimit:10"
   x1="547.43298"
   y1="242.75301"
   x2="582.23901"
   y2="248.239"
   id="line135" />
		</g><polygon
   style="fill:#263238;stroke:#263238;stroke-linecap:round;stroke-linejoin:round;stroke-miterlimit:10"
   points="549.892,211.919 547.588,211.926 547.588,191.3 549.892,192.624 "
   id="polygon139"
   transform="matrix(-1,0,0,1,755.88101,0)" /><polygon
   style="fill:#263238;stroke:#263238;stroke-linecap:round;stroke-linejoin:round;stroke-miterlimit:10"
   points="413.441,262.348 407.625,261.43 407.625,345.439 413.441,346.052 "
   id="polygon141"
   transform="matrix(-1,0,0,1,755.88101,0)" /><polygon
   style="fill:#ababab;stroke:#263238;stroke-linecap:round;stroke-linejoin:round;stroke-miterlimit:10"
   points="481.094,331.664 580.888,346.358 580.888,374.215 413.441,346.052 413.441,262.348 482.012,258.808 482.012,268.603 584.562,279.93 584.562,316.052 566.195,321.256 481.094,310.236 "
   id="polygon143"
   transform="matrix(-1,0,0,1,755.88101,0)" /><polygon
   style="fill:#ababab;stroke:#263238;stroke-linecap:round;stroke-linejoin:round;stroke-miterlimit:10"
   points="584.562,279.93 482.012,268.603 413.135,273.368 548.134,283.297 "
   id="polygon145"
   transform="matrix(-1,0,0,1,755.88101,0)" /><polygon
   style="fill:#263238;stroke:#263238;stroke-linecap:round;stroke-linejoin:round;stroke-miterlimit:10"
   points="566.195,321.256 584.562,316.052 584.562,279.93 548.134,283.297 548.134,318.501 "
   id="polygon147"
   transform="matrix(-1,0,0,1,755.88101,0)" /><polygon
   style="fill:#263238;stroke:#263238;stroke-linecap:round;stroke-linejoin:round;stroke-miterlimit:10"
   points="481.094,310.236 548.134,318.501 548.134,283.297 413.135,273.368 413.135,303.96 "
   id="polygon149"
   transform="matrix(-1,0,0,1,755.88101,0)" /><polyline
   style="fill:none;stroke:#ffffff;stroke-linecap:round;stroke-linejoin:round;stroke-miterlimit:10"
   points="    441.692,305.509 449.336,291.177 504.277,296.671 508.099,300.732   "
   id="polyline151"
   transform="matrix(-1,0,0,1,755.88101,0)" /><g
   id="g167"
   transform="matrix(-1,0,0,1,755.88101,0)">
			<path
   style="fill:#ffffff;stroke:#263238;stroke-linecap:round;stroke-linejoin:round;stroke-miterlimit:10"
   d="m 515.073,286.971 c 0,0 -7.041,3.673 -5.51,17.755 1.531,14.082 15.306,32.143 25.714,38.571 10.408,6.428 34.898,10.102 38.571,9.796 3.673,-0.306 5.816,-0.612 5.816,-0.612 v -14.082 c 0,0 -8.878,2.449 -18.367,0 -9.489,-2.449 -27.857,-28.469 -30,-33.979 -2.143,-5.51 2.755,-11.326 2.755,-11.326 v -4.592 z"
   id="path153" />
			<path
   style="fill:none;stroke:#263238;stroke-linecap:round;stroke-linejoin:round;stroke-miterlimit:10"
   d="m 524.256,288.195 c 0,0 -6.122,3.061 -3.367,16.53 2.755,13.469 14.388,29.694 27.551,38.265 13.163,8.571 25.102,6.735 25.102,6.735"
   id="path155" />
			<path
   style="fill:none;stroke:#263238;stroke-linecap:round;stroke-linejoin:round;stroke-miterlimit:10"
   d="m 534.052,288.501 c 0,0 -6.332,5.122 -5.835,14.056 0.496,8.934 14.393,23.575 20.473,30.028"
   id="path157" />
			<path
   style="fill:none;stroke:#263238;stroke-linecap:round;stroke-linejoin:round;stroke-miterlimit:10"
   d="m 526.48,290.769 c 0,0 -2.978,5.46 -1.241,15.014 1.737,9.554 17.495,28.29 27.918,34.991"
   id="path159" />
			<path
   style="fill:none;stroke:#263238;stroke-linecap:round;stroke-linejoin:round;stroke-miterlimit:10"
   d="m 518.911,287.171 c 0,0 -3.598,1.861 -3.226,12.284 0.372,10.423 8.686,27.422 19.605,38.341"
   id="path161" />
			<path
   style="fill:none;stroke:#263238;stroke-linecap:round;stroke-linejoin:round;stroke-miterlimit:10"
   d="m 512.211,301.44 c 0,0 -1.241,10.547 10.547,26.926"
   id="path163" />
			<path
   style="fill:none;stroke:#263238;stroke-linecap:round;stroke-linejoin:round;stroke-miterlimit:10"
   d="m 557.997,341.767 c 0,0 10.547,2.358 20.597,2.978"
   id="path165" />
		</g><polygon
   style="fill:#ffffff;stroke:#263238;stroke-linecap:round;stroke-linejoin:round;stroke-miterlimit:10"
   points="413.441,262.348 407.625,261.43 454.982,258.072 482.012,258.808 "
   id="polygon169"
   transform="matrix(-1,0,0,1,755.88101,0)" /><polygon
   style="fill:#263238;stroke:#263238;stroke-linecap:round;stroke-linejoin:round;stroke-miterlimit:10"
   points="461.538,308.529 413.465,311.707 413.862,323.03 465.908,316.077 465.908,329.387 413.664,340.113 413.441,346.052 481.094,331.664 481.094,310.236 "
   id="polygon171"
   transform="matrix(-1,0,0,1,755.88101,0)" /><polygon
   style="fill:#263238"
   points="412.764,117.232 465.452,123.657 629.94,109.522 629.94,88.318 591.709,80.608 412.764,103.418 "
   id="polygon189"
   transform="matrix(-1,0,0,1,755.88101,0)" /><polygon
   style="fill:#ffffff"
   points="465.452,123.657 412.764,117.232 573.718,99.884 629.94,109.522 "
   id="polygon191"
   transform="matrix(-1,0,0,1,755.88101,0)" /><path
   style="fill:#ffffff;stroke:#263238;stroke-linecap:round;stroke-linejoin:round;stroke-miterlimit:10"
   d="m 244.45401,233.138 h 13.501 c 3.927,0 7.11,-3.183 7.11,-7.11 v -21.421 c 0,-3.927 -3.184,-7.11 -7.11,-7.11 h -13.501 c -3.927,0 -7.111,3.184 -7.111,7.11 v 21.421 c 0.001,3.927 3.184,7.11 7.111,7.11 z"
   id="path193" /><path
   style="fill:#8e8b5b;fill-opacity:1"
   d="m 247.03501,227.16 h 8.34 c 2.784,0 5.041,-2.257 5.041,-5.041 v -13.604 c 0,-2.784 -2.257,-5.041 -5.041,-5.041 h -8.34 c -2.784,0 -5.041,2.257 -5.041,5.041 v 13.604 c 0,2.784 2.257,5.041 5.041,5.041 z"
   id="path195" /><path
   style="fill:#263238;stroke:#263238;stroke-linecap:round;stroke-linejoin:round;stroke-miterlimit:10"
   d="m 163.80001,73.603 -1.214,324.41 -93.036,-20.225 -0.809,-289.623 z m -88.586,296.095 76.451,14.967 -0.809,-297.713 -75.642,12.54 z"
   id="path197" /><path
   style="fill:#707070;stroke:#263238;stroke-linecap:round;stroke-linejoin:round;stroke-miterlimit:10"
   d="m 163.80001,73.603 209.532,27.506 v 262.117 l -210.745,34.787 z m 199.015,282.342 1.618,-247.555 -186.475,-20.225 -1.214,298.927 z"
   id="path199" /><line
   style="fill:none;stroke:#263238;stroke-linecap:round;stroke-linejoin:round;stroke-miterlimit:10"
   x1="288.94101"
   y1="128.03"
   x2="288.94101"
   y2="154.823"
   id="line201" /><g
   id="Keyboard"
   transform="matrix(-1,0,0,1,755.88101,0)">
	<g
   id="g374">
		<path
   style="fill:#263238;stroke:#263238;stroke-linecap:round;stroke-linejoin:round;stroke-miterlimit:10"
   d="m 259.828,436.983 c 0,0 53.187,13.945 58.052,13.621 4.865,-0.324 221.829,-46.377 223.451,-47.35 1.621,-0.973 4.216,-6.162 4.216,-6.162 l -7.784,-2.919 c 0,0 -71.349,-13.945 -74.916,-13.297 -3.567,0.649 -234.478,36.323 -236.748,38.593 -2.27,2.27 -5.513,4.54 -4.54,5.513 0.973,0.974 38.269,12.001 38.269,12.001 z"
   id="path206" />
		<g
   id="g372">
			<polyline
   style="fill:none;stroke:#b8b8b8;stroke-linecap:round;stroke-linejoin:round;stroke-miterlimit:10"
   points="     235.18,423.037 311.327,440.858 537.05,395.091    "
   id="polyline208" />
			<polyline
   style="fill:none;stroke:#b8b8b8;stroke-linecap:round;stroke-linejoin:round;stroke-miterlimit:10"
   points="     315.462,442.788 318.77,444.993 542.337,398.405    "
   id="polyline210" />
			<polyline
   style="fill:none;stroke:#b8b8b8;stroke-linecap:round;stroke-linejoin:round;stroke-miterlimit:10"
   points="     248.912,423.211 251.716,420.661 308.313,434.428 308.568,438.507    "
   id="polyline212" />
			<polyline
   style="fill:none;stroke:#b8b8b8;stroke-linecap:round;stroke-linejoin:round;stroke-miterlimit:10"
   points="     308.313,434.428 318.474,432.915 321.628,436.797    "
   id="polyline214" />
			<polyline
   style="fill:none;stroke:#b8b8b8;stroke-linecap:round;stroke-linejoin:round;stroke-miterlimit:10"
   points="     322.598,436.19 323.569,432.794 332.18,430.732 335.091,434.007 336.304,430.368 356.924,426.245 359.956,429.883    "
   id="polyline216" />
			<polyline
   style="fill:none;stroke:#b8b8b8;stroke-linecap:round;stroke-linejoin:round;stroke-miterlimit:10"
   points="     363.109,428.428 364.686,425.153 372.206,423.212 375.36,426.608    "
   id="polyline218" />
			<polyline
   style="fill:none;stroke:#b8b8b8;stroke-linecap:round;stroke-linejoin:round;stroke-miterlimit:10"
   points="     376.573,426.123 377.543,422.363 383.486,421.15 386.64,423.455 388.459,420.18 395.13,419.088 397.435,421.029    "
   id="polyline220" />
			<polyline
   style="fill:none;stroke:#b8b8b8;stroke-linecap:round;stroke-linejoin:round;stroke-miterlimit:10"
   points="     251.716,420.661 260.861,419.331 263.651,420.301 264.743,417.997 267.168,417.754 271.414,417.754 274.567,417.026      277.114,415.45 283.543,415.45 288.758,415.328 289.85,413.994 297.491,412.903 302.585,413.752 305.133,410.598      312.774,410.234 315.442,410.355 317.262,409.021 337.032,405.989 341.034,406.474 343.096,404.17 361.047,401.987      368.204,403.078 369.659,404.897    "
   id="polyline222" />
			
				<line
   style="fill:none;stroke:#b8b8b8;stroke-linecap:round;stroke-linejoin:round;stroke-miterlimit:10"
   x1="355.58899"
   y1="408.29401"
   x2="367.84"
   y2="405.746"
   id="line224" />
			<polyline
   style="fill:none;stroke:#b8b8b8;stroke-linecap:round;stroke-linejoin:round;stroke-miterlimit:10"
   points="     370.751,405.625 387.365,409.902 375.845,412.66 359.349,409.264    "
   id="polyline226" />
			
				<line
   style="fill:none;stroke:#b8b8b8;stroke-linecap:round;stroke-linejoin:round;stroke-miterlimit:10"
   x1="375.845"
   y1="412.66"
   x2="375.845"
   y2="418.603"
   id="line228" />
			<polyline
   style="fill:none;stroke:#b8b8b8;stroke-linecap:round;stroke-linejoin:round;stroke-miterlimit:10"
   points="     395.13,419.088 384.578,416.663 378.028,417.39 377.179,419.331    "
   id="polyline230" />
			<polyline
   style="fill:none;stroke:#b8b8b8;stroke-linecap:round;stroke-linejoin:round;stroke-miterlimit:10"
   points="     383.486,421.15 371.721,418.603 367.597,420.301 366.991,421.272    "
   id="polyline232" />
			
				<line
   style="fill:none;stroke:#b8b8b8;stroke-linecap:round;stroke-linejoin:round;stroke-miterlimit:10"
   x1="377.543"
   y1="422.36301"
   x2="370.99301"
   y2="420.90799"
   id="line234" />
			
				<line
   style="fill:none;stroke:#b8b8b8;stroke-linecap:round;stroke-linejoin:round;stroke-miterlimit:10"
   x1="388.45901"
   y1="420.17999"
   x2="380.57501"
   y2="418.724"
   id="line236" />
			<polyline
   style="fill:none;stroke:#b8b8b8;stroke-linecap:round;stroke-linejoin:round;stroke-miterlimit:10"
   points="     364.686,425.153 354.619,421.757 362.867,420.544 371.236,422.363    "
   id="polyline238" />
			<polygon
   style="fill:none;stroke:#b8b8b8;stroke-linecap:round;stroke-linejoin:round;stroke-miterlimit:10"
   points="362.26,414.843 353.77,416.663 361.654,419.088 369.78,417.269 "
   id="polygon240" />
			<polyline
   style="fill:none;stroke:#b8b8b8;stroke-linecap:round;stroke-linejoin:round;stroke-miterlimit:10"
   points="     353.77,416.663 350.98,419.695 354.376,420.908    "
   id="polyline242" />
			
				<line
   style="fill:none;stroke:#b8b8b8;stroke-linecap:round;stroke-linejoin:round;stroke-miterlimit:10"
   x1="369.78"
   y1="417.26901"
   x2="371.72101"
   y2="418.603"
   id="line244" />
			
				<line
   style="fill:none;stroke:#b8b8b8;stroke-linecap:round;stroke-linejoin:round;stroke-miterlimit:10"
   x1="356.92401"
   y1="426.245"
   x2="306.224"
   y2="414.60101"
   id="line246" />
			
				<line
   style="fill:none;stroke:#b8b8b8;stroke-linecap:round;stroke-linejoin:round;stroke-miterlimit:10"
   x1="266.198"
   y1="421.02899"
   x2="316.29099"
   y2="432.552"
   id="line248" />
			
				<line
   style="fill:none;stroke:#b8b8b8;stroke-linecap:round;stroke-linejoin:round;stroke-miterlimit:10"
   x1="267.77499"
   y1="419.20999"
   x2="321.992"
   y2="431.94501"
   id="line250" />
			
				<line
   style="fill:none;stroke:#b8b8b8;stroke-linecap:round;stroke-linejoin:round;stroke-miterlimit:10"
   x1="275.659"
   y1="418.11801"
   x2="330.23999"
   y2="430.005"
   id="line252" />
			<polyline
   style="fill:none;stroke:#b8b8b8;stroke-linecap:round;stroke-linejoin:round;stroke-miterlimit:10"
   points="     288.516,416.177 332.059,425.881 342.005,423.94    "
   id="polyline254" />
			<polyline
   style="fill:none;stroke:#b8b8b8;stroke-linecap:round;stroke-linejoin:round;stroke-miterlimit:10"
   points="     379.026,417.377 381.102,412.941 406.679,407.844 414.418,409.732 515.966,391.428 525.62,393.093 529.06,396.311    "
   id="polyline256" />
			<polyline
   style="fill:none;stroke:#b8b8b8;stroke-linecap:round;stroke-linejoin:round;stroke-miterlimit:10"
   points="     525.62,393.093 425.416,413.4 426.526,416.618    "
   id="polyline258" />
			<polyline
   style="fill:none;stroke:#b8b8b8;stroke-linecap:round;stroke-linejoin:round;stroke-miterlimit:10"
   points="     430.631,406.964 439.953,409.96 442.505,412.623    "
   id="polyline260" />
			<polyline
   style="fill:none;stroke:#b8b8b8;stroke-linecap:round;stroke-linejoin:round;stroke-miterlimit:10"
   points="     444.169,404.301 454.822,407.519 456.82,409.849    "
   id="polyline262" />
			<polyline
   style="fill:none;stroke:#b8b8b8;stroke-linecap:round;stroke-linejoin:round;stroke-miterlimit:10"
   points="     498.211,394.868 507.199,396.977 509.308,398.752    "
   id="polyline264" />
			<polyline
   style="fill:none;stroke:#b8b8b8;stroke-linecap:round;stroke-linejoin:round;stroke-miterlimit:10"
   points="     509.862,392.871 517.297,395.091 518.74,396.977    "
   id="polyline266" />
			<polyline
   style="fill:none;stroke:#b8b8b8;stroke-linecap:round;stroke-linejoin:round;stroke-miterlimit:10"
   points="     391.571,417.284 393.79,414.843 403.333,417.617 421.532,414.177 412.322,411.181    "
   id="polyline268" />
			
				<line
   style="fill:none;stroke:#b8b8b8;stroke-linecap:round;stroke-linejoin:round;stroke-miterlimit:10"
   x1="421.53201"
   y1="414.177"
   x2="422.97501"
   y2="417.284"
   id="line270" />
			
				<line
   style="fill:none;stroke:#b8b8b8;stroke-linecap:round;stroke-linejoin:round;stroke-miterlimit:10"
   x1="425.41599"
   y1="413.39999"
   x2="417.759"
   y2="410.84799"
   id="line272" />
			
				<line
   style="fill:none;stroke:#b8b8b8;stroke-linecap:round;stroke-linejoin:round;stroke-miterlimit:10"
   x1="393.79001"
   y1="414.84299"
   x2="409.88"
   y2="411.73599"
   id="line274" />
			
				<line
   style="fill:none;stroke:#b8b8b8;stroke-linecap:round;stroke-linejoin:round;stroke-miterlimit:10"
   x1="381.91699"
   y1="413.51099"
   x2="387.798"
   y2="415.28699"
   id="line276" />
			<polyline
   style="fill:none;stroke:#b8b8b8;stroke-linecap:round;stroke-linejoin:round;stroke-miterlimit:10"
   points="     287.076,420.273 288.491,418.387 293.204,417.327    "
   id="polyline278" />
			<polyline
   style="fill:none;stroke:#b8b8b8;stroke-linecap:round;stroke-linejoin:round;stroke-miterlimit:10"
   points="     298.625,423.219 299.804,421.334 304.046,420.037    "
   id="polyline280" />
			<polyline
   style="fill:none;stroke:#b8b8b8;stroke-linecap:round;stroke-linejoin:round;stroke-miterlimit:10"
   points="     311.824,425.223 313.003,424.044 318.424,423.101    "
   id="polyline282" />
			
				<line
   style="fill:none;stroke:#b8b8b8;stroke-linecap:round;stroke-linejoin:round;stroke-miterlimit:10"
   x1="294.73599"
   y1="430.64301"
   x2="299.45001"
   y2="429.229"
   id="line284" />
			
				<line
   style="fill:none;stroke:#b8b8b8;stroke-linecap:round;stroke-linejoin:round;stroke-miterlimit:10"
   x1="285.54401"
   y1="428.28699"
   x2="288.72601"
   y2="427.108"
   id="line286" />
			
				<line
   style="fill:none;stroke:#b8b8b8;stroke-linecap:round;stroke-linejoin:round;stroke-miterlimit:10"
   x1="262.44601"
   y1="422.39401"
   x2="267.98499"
   y2="421.923"
   id="line288" />
			
				<line
   style="fill:none;stroke:#b8b8b8;stroke-linecap:round;stroke-linejoin:round;stroke-miterlimit:10"
   x1="271.04901"
   y1="424.51501"
   x2="276.82401"
   y2="423.80801"
   id="line290" />
			<polyline
   style="fill:none;stroke:#b8b8b8;stroke-linecap:round;stroke-linejoin:round;stroke-miterlimit:10"
   points="     316.656,416.973 319.366,414.616 325.73,416.266 325.73,417.68    "
   id="polyline292" />
			<polyline
   style="fill:none;stroke:#b8b8b8;stroke-linecap:round;stroke-linejoin:round;stroke-miterlimit:10"
   points="     326.673,416.384 333.508,414.852 335.983,416.62 337.515,413.556 344.704,412.024 347.532,414.734 349.182,411.67      356.488,410.492 359.317,413.084    "
   id="polyline294" />
			<polyline
   style="fill:none;stroke:#b8b8b8;stroke-linecap:round;stroke-linejoin:round;stroke-miterlimit:10"
   points="     321.841,413.791 348.946,408.606 354.014,409.667    "
   id="polyline296" />
			
				<line
   style="fill:none;stroke:#b8b8b8;stroke-linecap:round;stroke-linejoin:round;stroke-miterlimit:10"
   x1="333.508"
   y1="414.85199"
   x2="328.44101"
   y2="412.849"
   id="line298" />
			
				<line
   style="fill:none;stroke:#b8b8b8;stroke-linecap:round;stroke-linejoin:round;stroke-miterlimit:10"
   x1="337.51501"
   y1="413.556"
   x2="332.80099"
   y2="412.259"
   id="line300" />
			
				<line
   style="fill:none;stroke:#b8b8b8;stroke-linecap:round;stroke-linejoin:round;stroke-miterlimit:10"
   x1="349.18201"
   y1="411.67001"
   x2="342.936"
   y2="410.37399"
   id="line302" />
			
				<line
   style="fill:none;stroke:#b8b8b8;stroke-linecap:round;stroke-linejoin:round;stroke-miterlimit:10"
   x1="315.44199"
   y1="410.35501"
   x2="325.495"
   y2="412.966"
   id="line304" />
			
				<line
   style="fill:none;stroke:#b8b8b8;stroke-linecap:round;stroke-linejoin:round;stroke-miterlimit:10"
   x1="318.07001"
   y1="409.31299"
   x2="329.50101"
   y2="412.37701"
   id="line306" />
			
				<line
   style="fill:none;stroke:#b8b8b8;stroke-linecap:round;stroke-linejoin:round;stroke-miterlimit:10"
   x1="327.02701"
   y1="408.13501"
   x2="336.80801"
   y2="411.08099"
   id="line308" />
			<polyline
   style="fill:none;stroke:#b8b8b8;stroke-linecap:round;stroke-linejoin:round;stroke-miterlimit:10"
   points="     330.68,407.31 340.108,410.727 344.704,412.024    "
   id="polyline310" />
			
				<line
   style="fill:none;stroke:#b8b8b8;stroke-linecap:round;stroke-linejoin:round;stroke-miterlimit:10"
   x1="342.11099"
   y1="406.95599"
   x2="346.58899"
   y2="408.25299"
   id="line312" />
			<polyline
   style="fill:none;stroke:#b8b8b8;stroke-linecap:round;stroke-linejoin:round;stroke-miterlimit:10"
   points="     343.096,404.17 352.953,406.249 353.66,408.724    "
   id="polyline314" />
			
				<line
   style="fill:none;stroke:#b8b8b8;stroke-linecap:round;stroke-linejoin:round;stroke-miterlimit:10"
   x1="363.677"
   y1="401.064"
   x2="471.39001"
   y2="383.504"
   id="line316" />
			
				<line
   style="fill:none;stroke:#b8b8b8;stroke-linecap:round;stroke-linejoin:round;stroke-miterlimit:10"
   x1="373.14301"
   y1="404.30301"
   x2="482.897"
   y2="385.74799"
   id="line318" />
			
				<line
   style="fill:none;stroke:#b8b8b8;stroke-linecap:round;stroke-linejoin:round;stroke-miterlimit:10"
   x1="381.54599"
   y1="407.27899"
   x2="494.79999"
   y2="387.49899"
   id="line320" />
			
				<line
   style="fill:none;stroke:#b8b8b8;stroke-linecap:round;stroke-linejoin:round;stroke-miterlimit:10"
   x1="409.55301"
   y1="406.92899"
   x2="506.52802"
   y2="389.599"
   id="line322" />
			
				<line
   style="fill:none;stroke:#b8b8b8;stroke-linecap:round;stroke-linejoin:round;stroke-miterlimit:10"
   x1="455.561"
   y1="385.93399"
   x2="499.73999"
   y2="393.99799"
   id="line324" />
			
				<line
   style="fill:none;stroke:#b8b8b8;stroke-linecap:round;stroke-linejoin:round;stroke-miterlimit:10"
   x1="466.431"
   y1="384.414"
   x2="506.168"
   y2="392.479"
   id="line326" />
			
				<line
   style="fill:none;stroke:#b8b8b8;stroke-linecap:round;stroke-linejoin:round;stroke-miterlimit:10"
   x1="483.26099"
   y1="397.38699"
   x2="449.133"
   y2="387.68701"
   id="line328" />
			
				<line
   style="fill:none;stroke:#b8b8b8;stroke-linecap:round;stroke-linejoin:round;stroke-miterlimit:10"
   x1="472.15799"
   y1="399.491"
   x2="441.186"
   y2="389.79001"
   id="line330" />
			
				<line
   style="fill:none;stroke:#b8b8b8;stroke-linecap:round;stroke-linejoin:round;stroke-miterlimit:10"
   x1="454.97699"
   y1="402.76401"
   x2="425.17401"
   y2="391.77701"
   id="line332" />
			
				<line
   style="fill:none;stroke:#b8b8b8;stroke-linecap:round;stroke-linejoin:round;stroke-miterlimit:10"
   x1="445.51001"
   y1="404.517"
   x2="416.52499"
   y2="393.414"
   id="line334" />
			
				<line
   style="fill:none;stroke:#b8b8b8;stroke-linecap:round;stroke-linejoin:round;stroke-miterlimit:10"
   x1="434.758"
   y1="406.504"
   x2="406.591"
   y2="394.93301"
   id="line336" />
			
				<line
   style="fill:none;stroke:#b8b8b8;stroke-linecap:round;stroke-linejoin:round;stroke-miterlimit:10"
   x1="422.836"
   y1="408.37399"
   x2="396.07199"
   y2="396.452"
   id="line338" />
			
				<line
   style="fill:none;stroke:#b8b8b8;stroke-linecap:round;stroke-linejoin:round;stroke-miterlimit:10"
   x1="407.409"
   y1="408.491"
   x2="385.202"
   y2="398.20599"
   id="line340" />
			
				<line
   style="fill:none;stroke:#b8b8b8;stroke-linecap:round;stroke-linejoin:round;stroke-miterlimit:10"
   x1="397.00699"
   y1="409.776"
   x2="375.151"
   y2="399.72501"
   id="line342" />
			
				<line
   style="fill:none;stroke:#b8b8b8;stroke-linecap:round;stroke-linejoin:round;stroke-miterlimit:10"
   x1="292.28699"
   y1="411.52899"
   x2="294.858"
   y2="408.60699"
   id="line344" />
			
				<line
   style="fill:none;stroke:#b8b8b8;stroke-linecap:round;stroke-linejoin:round;stroke-miterlimit:10"
   x1="303.85699"
   y1="407.08801"
   x2="308.883"
   y2="408.95801"
   id="line346" />
			
				<line
   style="fill:none;stroke:#b8b8b8;stroke-linecap:round;stroke-linejoin:round;stroke-miterlimit:10"
   x1="314.60999"
   y1="405.569"
   x2="319.98599"
   y2="407.32199"
   id="line348" />
			
				<line
   style="fill:none;stroke:#b8b8b8;stroke-linecap:round;stroke-linejoin:round;stroke-miterlimit:10"
   x1="327.466"
   y1="403.11401"
   x2="334.245"
   y2="405.452"
   id="line350" />
			
				<line
   style="fill:none;stroke:#b8b8b8;stroke-linecap:round;stroke-linejoin:round;stroke-miterlimit:10"
   x1="340.08899"
   y1="401.01001"
   x2="347.452"
   y2="402.76401"
   id="line352" />
			
				<line
   style="fill:none;stroke:#b8b8b8;stroke-linecap:round;stroke-linejoin:round;stroke-miterlimit:10"
   x1="350.37399"
   y1="399.25699"
   x2="357.854"
   y2="401.595"
   id="line354" />
			
				<line
   style="fill:none;stroke:#b8b8b8;stroke-linecap:round;stroke-linejoin:round;stroke-miterlimit:10"
   x1="361.59399"
   y1="397.38699"
   x2="367.43701"
   y2="399.14099"
   id="line356" />
			
				<line
   style="fill:none;stroke:#b8b8b8;stroke-linecap:round;stroke-linejoin:round;stroke-miterlimit:10"
   x1="387.306"
   y1="393.414"
   x2="392.215"
   y2="394.93301"
   id="line358" />
			
				<line
   style="fill:none;stroke:#b8b8b8;stroke-linecap:round;stroke-linejoin:round;stroke-miterlimit:10"
   x1="397.591"
   y1="391.66"
   x2="403.20099"
   y2="393.06299"
   id="line360" />
			
				<line
   style="fill:none;stroke:#b8b8b8;stroke-linecap:round;stroke-linejoin:round;stroke-miterlimit:10"
   x1="406.707"
   y1="390.02399"
   x2="412.31699"
   y2="391.07599"
   id="line362" />
			
				<line
   style="fill:none;stroke:#b8b8b8;stroke-linecap:round;stroke-linejoin:round;stroke-miterlimit:10"
   x1="419.44699"
   y1="388.271"
   x2="425.40799"
   y2="390.02399"
   id="line364" />
			
				<line
   style="fill:none;stroke:#b8b8b8;stroke-linecap:round;stroke-linejoin:round;stroke-miterlimit:10"
   x1="430.901"
   y1="386.51801"
   x2="437.67899"
   y2="387.92099"
   id="line366" />
			
				<line
   style="fill:none;stroke:#b8b8b8;stroke-linecap:round;stroke-linejoin:round;stroke-miterlimit:10"
   x1="439.43201"
   y1="384.88199"
   x2="446.211"
   y2="386.51801"
   id="line368" />
			
				<line
   style="fill:none;stroke:#b8b8b8;stroke-linecap:round;stroke-linejoin:round;stroke-miterlimit:10"
   x1="449.01599"
   y1="383.479"
   x2="454.74301"
   y2="384.99899"
   id="line370" />
		</g>
	</g>
</g><g
   id="Mouse"
   transform="matrix(-1,0,0,1,755.88101,0)">
	<g
   id="g383">
		<path
   style="fill:#a3a3a3;stroke:#263238;stroke-linecap:round;stroke-linejoin:round;stroke-miterlimit:10"
   d="m 265.99,442.172 c 0,0 -11.675,-15.243 -30.81,-19.134 -19.134,-3.892 -29.512,2.919 -38.917,8.108 -9.405,5.189 -18.486,9.405 -17.513,13.297 0.973,3.892 4.216,7.459 7.135,8.756 2.919,1.297 31.134,11.351 44.431,12.648 13.297,1.297 29.188,-2.27 34.053,-7.135 4.864,-4.865 1.621,-16.54 1.621,-16.54 z"
   id="path377" />
		<path
   style="fill:#707070;stroke:#263238;stroke-linecap:round;stroke-linejoin:round;stroke-miterlimit:10"
   d="m 263.052,438.879 c -4.594,-4.707 -14.373,-13.096 -27.872,-15.842 -19.135,-3.892 -29.512,2.919 -38.917,8.108 -1.788,0.987 -3.564,1.938 -5.262,2.858 1.999,-0.471 15.839,-3.546 22.45,0.06 7.135,3.892 20.107,9.405 34.053,9.405 7.923,10e-4 12.804,-2.302 15.548,-4.589 z"
   id="path379" />
		<path
   style="fill:#263238;stroke:#263238;stroke-linecap:round;stroke-linejoin:round;stroke-miterlimit:10"
   d="m 266.907,452.639 c -4.743,2.916 -11.791,5.747 -21.024,5.423 -18.486,-0.649 -25.945,-12.648 -37.62,-19.134 -11.675,-6.486 -29.512,5.513 -29.512,5.513 0.973,3.892 4.216,7.459 7.135,8.757 2.919,1.297 31.134,11.351 44.431,12.648 13.297,1.297 29.188,-2.27 34.053,-7.135 1.536,-1.538 2.261,-3.757 2.537,-6.072 z"
   id="path381" />
	</g>
</g><polygon
   style="fill:#a3a3a3;stroke:#263238;stroke-linecap:round;stroke-linejoin:round;stroke-miterlimit:10"
   points="69.797,90.592 96.893,350.796 101.393,348.913 74.711,87.626 "
   id="polygon386"
   transform="matrix(-1,0,0,1,755.88101,0)" /><g
   id="g392"
   transform="matrix(-1,0,0,1,755.88101,0)">
			<path
   style="fill:#a3a3a3;stroke:#263238;stroke-linecap:round;stroke-linejoin:round;stroke-miterlimit:10"
   d="m 229.465,334.964 -21.191,61.541 49.059,-10.45 c 0,0 -8.709,-6.096 -7.548,-15.385 1.161,-9.289 13.063,-37.737 13.063,-37.737 z"
   id="path388" />
			<path
   style="fill:#263238;stroke:#263238;stroke-linecap:round;stroke-linejoin:round;stroke-miterlimit:10"
   d="m 249.785,370.669 c 1.161,-9.289 13.063,-37.737 13.063,-37.737 l -23.491,1.43 c -1.873,5.417 -12.566,34.98 -13.085,43.274 -0.487,7.788 4.116,12.298 6.134,13.728 l 24.927,-5.31 c 0,0.001 -8.709,-6.095 -7.548,-15.385 z"
   id="path390" />
		</g><polygon
   style="fill:#263238;stroke:#263238;stroke-linecap:round;stroke-linejoin:round;stroke-miterlimit:10"
   points="377.783,122.867 74.711,87.626 101.393,348.913 404.465,320.72 "
   id="polygon394"
   transform="matrix(-1,0,0,1,755.88101,0)" /><polygon
   style="fill:#8e8b5b;stroke:#263238;stroke-linecap:round;stroke-linejoin:round;stroke-miterlimit:10;fill-opacity:1"
   points="110.959,337.333 394.9,312.665 372.245,132.433 85.283,98.199 "
   id="polygon396"
   transform="matrix(-1,0,0,1,755.88101,0)" /><g
   id="g408"
   transform="matrix(-1,0,0,1,755.88101,0)">
				<g
   id="g404">
					
						<ellipse
   transform="matrix(0.8569,-0.5154,0.5154,0.8569,-60.801,158.0603)"
   style="fill:#ffffff;stroke:#263238;stroke-linecap:round;stroke-linejoin:round;stroke-miterlimit:10"
   cx="254.312"
   cy="188.55"
   rx="23.98"
   ry="28.478001"
   id="ellipse398" />
					<path
   style="fill:#ffffff;stroke:#263238;stroke-linecap:round;stroke-linejoin:round;stroke-miterlimit:10"
   d="m 257.062,185.96 c 4.383,-0.88 6.445,-5.67 4.604,-10.698 -1.84,-5.028 -6.886,-8.39 -11.269,-7.51 -4.383,0.88 -6.445,5.67 -4.604,10.698 1.84,5.028 6.886,8.39 11.269,7.51 z"
   id="path400" />
					<path
   style="fill:#ffffff;stroke:#263238;stroke-linecap:round;stroke-linejoin:round;stroke-miterlimit:10"
   d="m 278.873,198.843 c -7.357,-8.367 -17.636,-13.388 -26.951,-12.225 -9.202,1.149 -15.091,8.039 -16.145,17.27 6.817,8.997 17.677,13.854 27.61,11.381 8.061,-2.007 13.614,-8.369 15.486,-16.426 z"
   id="path402" />
				</g>
				<polygon
   style="fill:#ffffff;stroke:#263238;stroke-linecap:round;stroke-linejoin:round;stroke-miterlimit:10"
   points="218.653,243.066 216.297,228.17 301.863,228.17 304.22,243.066 "
   id="polygon406" />
			</g><polygon
   style="fill:#ffffff;stroke:#263238;stroke-linecap:round;stroke-linejoin:round;stroke-miterlimit:10"
   points="101.393,348.913 96.893,350.796 403.046,322.323 404.465,320.72 "
   id="polygon412"
   transform="matrix(-1,0,0,1,755.88101,0)" /><path
   style="fill:#263238;stroke:#263238;stroke-linecap:round;stroke-linejoin:round;stroke-miterlimit:10"
   d="m 564.55601,421.601 c 0,0 -6.434,-6.135 -12.718,-8.977 -6.284,-2.843 -32.767,-12.867 -62.99,-15.261 -30.223,-2.394 -101.742,-3.74 -106.53,-3.89 -4.788,-0.15 -10.324,-0.598 -10.922,-2.244 -0.599,-1.646 -0.865,-8.947 -0.865,-8.947 l 21.191,7.838 2.117,-2.032 c 0,0 23.341,-2.244 66.132,1.197 42.792,3.441 68.826,10.025 86.331,15.561 17.506,5.534 18.254,16.755 18.254,16.755 z"
   id="path414" /><path
   style="fill:#707070;stroke:#263238;stroke-linecap:round;stroke-linejoin:round;stroke-miterlimit:10"
   d="m 589.98901,409.858 -26.997,9.289 c 0,0 -10.16,-14.805 -59.509,-22.642 -49.349,-7.838 -111.76,-6.386 -111.76,-6.386 l -21.191,-7.838 c 0,0 80.99,-4.645 133.532,2.322 52.542,6.967 79.248,17.127 85.925,25.255 z"
   id="path416" /><path
   style="fill:#263238;stroke:#263238;stroke-linecap:round;stroke-linejoin:round;stroke-miterlimit:10"
   d="m 589.98901,409.858 c 0,0 8.709,10.741 6.386,11.611 -2.322,0.871 -28.738,1.161 -30.77,0.29 -2.032,-0.871 -2.613,-2.613 -2.613,-2.613 z"
   id="path420" /><g
   id="Plant"
   transform="matrix(-1,0,0,1,755.88101,0)">
	<g
   id="g437">
		<path
   style="fill:#ffffff;stroke:#263238;stroke-linecap:round;stroke-linejoin:round;stroke-miterlimit:10"
   d="m 65.037,422.006 5.314,44.704 c 0,8.252 13.848,14.941 30.93,14.941 17.082,0 30.93,-6.689 30.93,-14.941 l 5.314,-44.704 z"
   id="path423" />
		
			<ellipse
   style="fill:#ffffff;stroke:#263238;stroke-linecap:round;stroke-linejoin:round;stroke-miterlimit:10"
   cx="101.281"
   cy="422.00601"
   rx="36.243999"
   ry="10.265"
   id="ellipse425" />
		<ellipse
   style="fill:#263238"
   cx="101.281"
   cy="422.00601"
   rx="28.243"
   ry="7.9990001"
   id="ellipse427" />
		<g
   id="g435">
			<path
   style="fill:#263238"
   d="m 39.017,321.749 c 3.356,0.921 11.05,-0.372 11.056,-0.373 0.08,-0.014 -2.392,-4.813 -2.582,-5.098 -2.208,-3.297 -8.413,-8.371 -12.686,-7.15 -3.078,0.88 -4.369,4.275 -3.231,7.129 1.162,2.914 4.584,4.707 7.443,5.492 z"
   id="path429" />
			<path
   style="fill:#263238"
   d="m 117.346,312.125 c 0.074,0.033 0.66,-5.334 0.658,-5.677 -0.023,-3.968 -2.399,-11.623 -6.637,-12.962 -3.052,-0.964 -6.002,1.155 -6.627,4.163 -0.639,3.072 1.227,6.456 3.177,8.688 2.292,2.62 9.423,5.786 9.429,5.788 z"
   id="path431" />
			<path
   style="fill:#263238"
   d="m 136.331,280.809 c -4.441,0.164 -8.768,6.91 -9.846,10.729 -0.093,0.33 -0.956,5.66 -0.875,5.647 0,0 0.075,-0.012 0.093,-0.015 -0.691,1.06 -1.42,2.204 -2.192,3.47 -1.406,2.349 -2.973,5.017 -4.482,8.035 -1.516,3.012 -3.079,6.327 -4.41,9.968 -1.339,3.647 -2.561,7.552 -3.3,11.738 -0.009,0.047 -0.011,0.098 -0.019,0.145 -0.164,-1.291 -0.744,-4.887 -0.82,-5.158 -1.069,-3.821 -5.382,-10.577 -9.823,-10.75 -3.199,-0.124 -5.484,2.7 -5.293,5.766 0.195,3.131 2.888,5.903 5.359,7.54 2.786,1.846 9.944,2.987 10.514,3.076 -0.667,3.993 -1.027,8.145 -1.161,12.367 -0.079,2.414 -0.083,4.847 -0.056,7.287 -0.178,-1.112 -0.345,-2.105 -0.384,-2.241 -1.07,-3.822 -5.382,-10.577 -9.823,-10.749 -3.2,-0.124 -5.484,2.699 -5.293,5.765 0.195,3.131 2.888,5.903 5.359,7.54 2.507,1.661 8.59,2.757 10.204,3.025 0.02,0.936 0.03,1.871 0.054,2.807 0.112,4.49 0.244,8.971 0.239,13.369 -0.001,1.55 -0.059,3.077 -0.112,4.604 -0.159,-0.987 -0.301,-1.818 -0.336,-1.942 -1.07,-3.822 -5.382,-10.577 -9.823,-10.749 -3.199,-0.125 -5.484,2.699 -5.293,5.766 0.195,3.13 2.888,5.903 5.359,7.54 2.393,1.585 7.998,2.646 9.914,2.975 -0.102,1.562 -0.2,3.128 -0.368,4.637 -0.139,1.028 -0.2,2.028 -0.396,3.053 -0.173,1.019 -0.344,2.028 -0.514,3.027 -0.397,1.912 -0.796,3.887 -1.23,5.742 -0.292,1.293 -0.595,2.519 -0.896,3.755 0.02,-1.542 -0.007,-4.564 -0.038,-4.816 -0.318,-2.618 -1.859,-6.725 -4.135,-9.438 -0.045,-0.387 -0.123,-0.768 -0.239,-1.141 -0.918,-2.931 -4.061,-4.752 -7.004,-3.492 -4.086,1.748 -5.7,9.599 -5.333,13.55 0.021,0.233 0.54,2.736 0.892,4.309 -0.348,-0.894 -0.675,-1.765 -1.045,-2.68 -0.718,-1.815 -1.488,-3.605 -2.31,-5.535 -0.429,-0.917 -0.863,-1.844 -1.302,-2.78 -0.414,-0.938 -0.972,-1.875 -1.457,-2.824 -1.174,-2.176 -2.469,-4.324 -3.822,-6.46 1.588,-0.633 7.194,-2.961 9.272,-5.094 2.068,-2.123 4.112,-5.402 3.64,-8.504 -0.463,-3.037 -3.293,-5.313 -6.394,-4.513 -4.303,1.109 -7.088,8.624 -7.324,12.586 -0.015,0.247 0.135,3.109 0.249,4.679 -0.824,-1.278 -1.639,-2.556 -2.513,-3.822 -2.525,-3.652 -5.194,-7.271 -7.841,-10.892 -0.812,-1.109 -1.606,-2.223 -2.407,-3.336 0.568,-0.219 7.291,-2.842 9.618,-5.231 2.069,-2.123 4.113,-5.402 3.641,-8.504 -0.463,-3.037 -3.293,-5.312 -6.394,-4.513 -4.303,1.109 -7.088,8.625 -7.324,12.586 -0.018,0.298 0.205,4.416 0.312,5.46 -1.761,-2.451 -3.494,-4.91 -5.104,-7.404 -2.226,-3.438 -4.22,-6.934 -5.9,-10.464 0.264,-0.102 7.294,-2.808 9.678,-5.254 2.068,-2.123 4.113,-5.402 3.64,-8.504 -0.462,-3.037 -3.294,-5.313 -6.394,-4.514 -4.304,1.109 -7.088,8.624 -7.324,12.585 -0.016,0.261 0.151,3.399 0.265,4.889 -0.135,0.035 -0.11,0.028 -0.245,0.063 -1.756,-3.804 -2.977,-7.709 -3.94,-11.421 -0.562,-2.149 -0.979,-4.234 -1.339,-6.272 1.361,-0.37 7.562,-2.128 9.95,-4.093 2.289,-1.883 4.681,-4.918 4.553,-8.052 -0.127,-3.069 -2.69,-5.642 -5.86,-5.188 -4.399,0.63 -7.992,7.794 -8.661,11.705 -0.036,0.212 -0.167,2.416 -0.24,4.022 -0.148,-0.922 -0.318,-1.871 -0.443,-2.758 -0.476,-3.327 -0.707,-6.402 -0.89,-9.128 -0.091,-1.551 -0.143,-2.955 -0.178,-4.269 1.146,-1.06 5.712,-5.388 6.905,-8.181 1.164,-2.726 1.888,-6.522 0.33,-9.244 -1.527,-2.666 -4.988,-3.768 -7.591,-1.905 -3.614,2.586 -3.502,10.6 -2.294,14.38 0.105,0.327 2.325,5.248 2.385,5.193 0,0 0.056,-0.051 0.069,-0.064 0.008,1.265 0.031,2.622 0.087,4.103 0.123,2.735 0.288,5.824 0.694,9.175 0.397,3.348 0.923,6.976 1.821,10.746 0.896,3.781 2.03,7.712 3.723,11.611 0.019,0.044 0.045,0.088 0.064,0.132 -0.849,-0.987 -3.316,-3.666 -3.529,-3.85 -3,-2.597 -10.324,-5.852 -14.123,-3.547 -2.737,1.662 -3.085,5.277 -1.234,7.729 1.89,2.504 5.665,3.33 8.629,3.332 3.343,0.002 9.943,-2.995 10.467,-3.235 1.647,3.699 3.637,7.361 5.855,10.955 1.266,2.057 2.605,4.089 3.973,6.109 -0.762,-0.829 -1.449,-1.565 -1.556,-1.658 -3.001,-2.598 -10.325,-5.852 -14.123,-3.546 -2.737,1.661 -3.085,5.277 -1.234,7.728 1.89,2.504 5.665,3.33 8.629,3.333 3.007,0.002 8.685,-2.44 10.179,-3.106 0.533,0.769 1.056,1.544 1.592,2.311 2.571,3.683 5.153,7.347 7.575,11.019 0.854,1.294 1.648,2.599 2.447,3.902 -0.678,-0.736 -1.255,-1.35 -1.352,-1.435 -3,-2.597 -10.324,-5.853 -14.123,-3.547 -2.737,1.662 -3.085,5.277 -1.234,7.729 1.89,2.504 5.665,3.33 8.629,3.332 2.87,0.002 8.131,-2.204 9.91,-2.988 0.777,1.359 1.559,2.719 2.251,4.071 0.452,0.934 0.952,1.802 1.354,2.765 0.418,0.945 0.831,1.881 1.241,2.808 0.723,1.814 1.481,3.681 2.142,5.468 0.469,1.239 0.893,2.429 1.324,3.626 -0.835,-1.297 -2.524,-3.803 -2.689,-3.996 -2.572,-3.022 -9.318,-7.349 -13.423,-5.645 -2.956,1.228 -3.849,4.749 -2.39,7.453 1.489,2.761 5.095,4.15 8.025,4.601 3.225,0.496 9.938,-1.358 10.775,-1.595 0.706,1.984 1.374,3.92 1.974,5.757 2.079,6.303 3.575,11.637 4.574,15.405 l 2.981,-0.432 c -0.025,-0.086 -0.046,-0.162 -0.071,-0.25 -1.095,-3.796 -2.733,-9.194 -4.992,-15.573 -0.709,-2.017 -1.507,-4.159 -2.346,-6.35 0.484,-0.279 3.229,-1.881 5.604,-3.7 2.605,2.111 8.786,4.128 9.586,4.382 -0.505,2.044 -1.017,4.027 -1.529,5.891 -1.744,6.404 -3.439,11.678 -4.683,15.372 l 3.272,-0.474 c 1.121,-3.648 2.531,-8.497 3.959,-14.231 0.522,-2.074 1.038,-4.3 1.546,-6.591 0.852,0.053 7.821,0.447 10.872,-0.723 2.767,-1.061 5.998,-3.182 6.868,-6.197 0.852,-2.951 -0.765,-6.203 -3.915,-6.777 -4.372,-0.796 -10.049,4.861 -11.923,8.359 -0.11,0.207 -1.059,2.579 -1.634,4.087 0.203,-0.937 0.41,-1.845 0.607,-2.812 0.403,-1.91 0.748,-3.828 1.127,-5.89 0.148,-1.002 0.298,-2.015 0.448,-3.037 0.172,-1.01 0.224,-2.1 0.342,-3.16 0.221,-2.462 0.326,-4.969 0.376,-7.497 1.674,0.349 7.634,1.5 10.544,0.867 2.896,-0.63 6.411,-2.237 7.727,-5.084 1.289,-2.788 0.184,-6.248 -2.843,-7.292 -4.201,-1.449 -10.67,3.283 -13.052,6.457 -0.149,0.198 -1.602,2.667 -2.374,4.039 0.018,-1.52 0.044,-3.036 0.012,-4.574 -0.091,-4.439 -0.321,-8.93 -0.531,-13.41 -0.065,-1.373 -0.113,-2.741 -0.167,-4.111 0.594,0.13 7.649,1.652 10.908,0.943 2.896,-0.629 6.411,-2.237 7.728,-5.084 1.289,-2.788 0.183,-6.248 -2.843,-7.292 -4.201,-1.449 -10.67,3.283 -13.052,6.457 -0.179,0.239 -2.265,3.796 -2.751,4.726 -0.117,-3.016 -0.205,-6.024 -0.172,-8.991 0.04,-4.096 0.306,-8.111 0.851,-11.983 0.277,0.062 7.633,1.683 10.971,0.957 2.896,-0.63 6.411,-2.237 7.728,-5.085 1.29,-2.788 0.184,-6.248 -2.843,-7.292 -4.202,-1.449 -10.67,3.283 -13.051,6.457 -0.157,0.208 -1.748,2.915 -2.475,4.221 -0.132,-0.046 -0.108,-0.037 -0.24,-0.083 0.634,-4.14 1.77,-8.071 3.014,-11.697 0.717,-2.102 1.519,-4.071 2.343,-5.97 1.339,0.442 7.481,2.396 10.557,2.075 2.948,-0.308 6.618,-1.519 8.24,-4.204 1.588,-2.63 0.869,-6.191 -2.025,-7.561 -4.017,-1.902 -10.966,2.092 -13.682,4.985 -0.148,0.158 -1.472,1.923 -2.419,3.223 0.385,-0.851 0.767,-1.736 1.151,-2.544 1.438,-3.038 2.942,-5.73 4.293,-8.104 0.78,-1.344 1.511,-2.543 2.207,-3.659 1.541,-0.251 7.736,-1.343 10.272,-3.014 2.474,-1.632 5.173,-4.398 5.375,-7.529 0.194,-3.067 -2.085,-5.896 -5.284,-5.779 z"
   id="path433" />
		</g>
	</g>
</g>
</svg>
